<svg width="204" height="184" viewBox="0 0 204 184" fill="none" xmlns="http://www.w3.org/2000/svg">
<path d="M97.9796 179.036C97.9796 179.041 97.9796 179.045 97.9796 179.045C97.9753 179.049 97.9667 179.045 97.9624 179.045C97.9408 179.041 97.9191 179.036 97.8975 179.036C97.9147 179.032 97.945 179.032 97.9796 179.036Z" fill="#F80000"/>
<path d="M203.077 119.845C202.977 121.122 202.821 122.399 202.601 123.663C202.432 124.629 202.306 125.607 202.176 126.581C201.518 131.447 200.886 136.313 200.237 141.174C199.328 147.967 198.401 154.755 197.423 161.538C196.531 167.711 195.618 173.88 194.531 180.023C194.505 180.162 194.44 180.257 194.354 180.313C194.055 180.508 193.51 180.24 193.592 179.764C193.618 179.608 193.648 179.456 193.674 179.3C193.873 178.166 194.068 177.023 194.254 175.885C195.319 169.417 196.258 162.923 197.172 156.434C198.085 149.932 198.964 143.425 199.83 136.914C200.371 132.828 200.886 128.741 201.466 124.659C201.67 123.209 201.929 121.771 202.064 120.313C202.172 119.066 202.345 117.65 202.025 116.421C201.99 116.278 201.929 116.083 201.847 115.997C201.843 115.992 201.843 115.988 201.847 115.988H201.843C201.674 115.94 201.258 115.992 201.033 115.992C199.769 115.992 198.509 115.997 197.245 116.001C187.159 116.044 177.072 116.165 166.985 116.282C156.647 116.403 146.309 116.538 135.972 116.672C130.803 116.737 125.634 116.806 120.465 116.871C117.876 116.906 115.287 116.945 112.698 116.984C111.4 117.001 110.105 117.018 108.807 117.027C107.876 117.031 106.841 116.927 105.975 117.343C105.066 117.78 104.668 118.733 104.486 119.668C104.244 120.906 104.222 122.2 104.114 123.456C103.889 126.04 103.651 128.625 103.417 131.213C102.945 136.382 102.469 141.551 101.997 146.72C101.529 151.863 101.062 157.006 100.607 162.153C100.378 164.716 100.14 167.279 99.9364 169.842C99.8152 171.34 99.7763 172.846 99.668 174.344C99.6031 175.253 99.5295 176.162 99.4083 177.063C99.3044 177.877 99.2351 178.829 98.8152 179.548C98.3217 180.392 96.932 179.911 96.1615 179.816C91.9319 179.275 87.7068 178.651 83.4859 178.045C83.3951 178.032 83.3084 178.019 83.2176 178.006C83.1267 177.993 83.0531 177.963 82.9967 177.915C82.8582 177.799 82.8322 177.604 82.8971 177.426C82.9448 177.292 83.0444 177.171 83.1829 177.106C83.2348 177.084 83.2912 177.067 83.3561 177.067C83.3951 177.058 83.4341 177.063 83.4772 177.067C83.4946 177.071 83.5119 177.071 83.5291 177.076C85.7933 177.4 88.0573 177.729 90.3215 178.045C92.3561 178.331 94.3951 178.617 96.4341 178.877C96.9146 178.933 97.4167 178.95 97.8929 179.037C97.7544 179.05 97.9968 179.171 97.9752 179.058C97.9752 179.054 97.9752 179.05 97.9796 179.045C98.0186 179.05 98.0532 179.045 98.0922 179.05C98.0445 179.041 98.0099 179.037 97.9796 179.037C98.0012 178.98 98.0663 178.846 98.0791 178.812C98.2349 178.374 98.3085 177.898 98.3822 177.439C98.4384 177.076 98.4861 176.712 98.5251 176.344C98.5466 176.188 98.564 176.028 98.5769 175.868C98.5943 175.703 98.6116 175.539 98.6246 175.378C98.7198 174.266 98.7718 173.153 98.8324 172.045C98.932 170.179 99.0921 168.326 99.2524 166.465C100.161 156.045 101.123 145.625 102.075 135.209C102.313 132.625 102.547 130.036 102.785 127.451C103.01 124.949 103.114 122.412 103.46 119.927C103.72 118.075 104.651 116.473 106.612 116.148C106.915 116.096 107.218 116.066 107.521 116.049C107.845 116.031 108.17 116.031 108.495 116.036C108.958 116.036 109.417 116.049 109.867 116.044C111.205 116.031 112.538 116.01 113.876 115.992C124.309 115.828 134.746 115.706 145.179 115.577C147.361 115.551 149.543 115.52 151.725 115.494C151.885 115.49 152.045 115.49 152.205 115.49C152.374 115.486 152.539 115.481 152.707 115.481C159.214 115.399 165.716 115.321 172.223 115.252C172.548 115.247 172.872 115.243 173.197 115.239C174.262 115.226 175.331 115.217 176.396 115.204C181.5 115.152 186.608 115.1 191.712 115.061C194.163 115.04 196.613 115.027 199.063 115.018H201.033C201.392 115.018 201.812 114.949 202.158 115.066C202.574 115.208 202.795 115.611 202.92 116.005C203.311 117.195 203.168 118.62 203.077 119.845Z" fill="#F80000"/>
<path d="M194.583 179.664C194.544 179.902 194.466 180.119 194.354 180.313C193.843 181.214 192.631 181.668 191.661 181.85C189.834 182.192 187.921 182.218 186.068 182.318C182.605 182.508 179.141 182.634 175.674 182.751C171.133 182.902 166.591 183.032 162.046 183.145C157.046 183.27 152.041 183.378 147.041 183.482C142.141 183.577 137.24 183.668 132.34 183.746C128.123 183.811 123.902 183.872 119.686 183.924C116.725 183.958 113.768 183.989 110.811 183.997C107.673 184.006 104.534 183.989 101.4 183.98C99.2873 183.972 97.2612 183.759 95.1833 183.422C93.062 183.075 90.9322 182.79 88.8152 182.448C87.8282 182.283 86.8412 182.115 85.8541 181.963C85.3303 181.881 84.8109 181.794 84.3001 181.669C83.9407 181.582 83.4688 181.5 83.1486 181.301C82.4733 180.868 82.5382 179.612 82.5209 178.924C82.5122 178.586 82.5122 178.249 82.5209 177.911C82.5209 177.747 82.5253 177.586 82.5338 177.426C82.5382 177.262 82.5469 177.101 82.5641 176.941C82.5944 176.405 82.655 175.868 82.7416 175.34C82.8628 174.591 83.0534 174.201 83.8369 174.11C84.6595 174.015 85.5123 174.097 86.3348 174.158C87.6508 174.253 88.9669 174.396 90.2786 174.534C93.0578 174.837 95.8328 175.188 98.625 175.379H98.651C98.6813 175.379 98.7072 175.383 98.7333 175.392C99.2744 175.509 99.2441 176.396 98.651 176.353C98.6076 176.348 98.5687 176.348 98.5255 176.344C97.3263 176.262 96.1229 176.145 94.9281 176.019C92.2008 175.733 89.4778 175.383 86.7418 175.162C85.8543 175.093 84.9496 175.006 84.0621 175.062C83.8976 175.076 83.8846 175.084 83.7807 175.097C83.7763 175.11 83.7763 175.123 83.772 175.14C83.7589 175.231 83.733 175.327 83.7158 175.418C83.6724 175.638 83.6421 175.863 83.6162 176.089C83.5816 176.417 83.5513 176.746 83.5295 177.076C83.5036 177.4 83.4906 177.721 83.4862 178.045C83.4732 178.565 83.4862 179.084 83.5295 179.599C83.5469 179.816 83.5685 180.028 83.6162 180.24C83.6334 180.309 83.6724 180.387 83.6811 180.457C83.7504 180.474 83.8976 180.543 83.902 180.547C83.9928 180.578 84.0881 180.604 84.1791 180.63C84.3999 180.695 84.6206 180.751 84.8458 180.799C85.2961 180.898 85.7549 180.967 86.2095 181.041C88.2398 181.353 90.2615 181.703 92.2918 182.006C94.3351 182.305 96.3784 182.708 98.4304 182.907C100.5 183.11 102.617 183.011 104.695 183.015C106.461 183.02 108.231 183.024 109.998 183.024C111.132 183.024 112.266 183.02 113.4 183.011C116.768 182.985 120.136 182.946 123.5 182.903C127.864 182.842 132.227 182.777 136.591 182.699C141.453 182.617 146.319 182.526 151.18 182.422C155.972 182.318 160.765 182.21 165.553 182.08C169.778 181.967 174.003 181.842 178.228 181.686C181.324 181.574 184.415 181.452 187.506 181.262C188.471 181.201 189.441 181.136 190.402 181.041C190.575 181.024 190.744 181.002 190.912 180.985C190.943 180.981 190.977 180.976 191.012 180.972L191.073 180.963C191.125 180.955 191.172 180.95 191.22 180.942C192.116 180.795 193.484 180.461 193.644 179.405C193.649 179.366 193.657 179.331 193.674 179.301C193.852 178.82 194.674 179.088 194.583 179.664Z" fill="#F80000"/>
<path d="M160.604 145.698C160.223 145.278 159.687 145.053 159.098 145.066L146.037 145.373C144.812 145.404 143.703 146.469 143.569 147.746L143.214 151.157C143.145 151.802 143.34 152.425 143.747 152.863C144.123 153.27 144.647 153.495 145.219 153.495H145.279L158.193 153.144C159.409 153.114 160.492 152.092 160.656 150.828L161.102 147.438C161.189 146.78 161.007 146.148 160.604 145.698ZM144.383 152.274C144.141 152.014 144.033 151.651 144.076 151.248L144.431 147.837C144.522 146.988 145.266 146.256 146.058 146.239L159.115 145.932H159.145C159.47 145.932 159.756 146.053 159.959 146.278C160.197 146.542 160.297 146.915 160.245 147.326L159.799 150.715C159.686 151.555 158.955 152.257 158.171 152.278L145.253 152.629C144.907 152.633 144.604 152.512 144.383 152.274Z" fill="#F80000"/>
<path d="M124.838 43.0428C124.504 45.2075 123.963 47.3286 123.097 49.3503C122.405 50.9824 121.487 52.5279 120.383 53.9175C120.063 54.3244 119.725 54.7141 119.374 55.0907C119.357 55.1123 119.335 55.1341 119.314 55.1557C117.054 57.554 114.18 59.3419 110.911 60.0779C107.573 60.8312 104.049 60.4329 100.907 59.1125C98.9542 58.2943 97.149 57.1168 95.6339 55.6319C95.4997 55.5064 95.3698 55.372 95.24 55.2378C95.0191 55.0041 94.8028 54.766 94.595 54.5235C93.5171 53.2681 92.6166 51.8784 91.8676 50.4066V50.4023C91.6685 50.0126 91.4823 49.6144 91.3049 49.2161V49.2118C90.3179 46.9996 89.6339 44.6403 89.1664 42.2852C89.1448 42.177 89.1231 42.0687 89.1015 41.9606C88.4392 38.5233 88.1663 35.0168 88.1578 31.5146C88.1535 30.1033 88.1924 28.6964 88.2661 27.2938C88.2661 27.2635 88.2704 27.2376 88.2791 27.2115C88.3571 26.8089 88.8679 26.7179 89.1103 26.9474C89.197 27.0254 89.2489 27.1422 89.2402 27.2938C89.2142 27.8349 89.1883 28.3717 89.1709 28.9128C89.0237 33.6878 89.2748 38.5277 90.3527 43.1901C90.8592 45.3632 91.5562 47.5365 92.5476 49.5625C92.7208 49.9304 92.9069 50.2942 93.1103 50.6534V50.6578C94.093 52.4414 95.3225 54.0778 96.8636 55.4543C101.067 59.2207 107.34 60.5367 112.647 58.5409C117.786 56.6058 121.423 51.9607 122.99 46.8091C123.821 44.0817 124.141 41.2376 124.28 38.402C124.444 35.0297 124.371 31.6487 124.332 28.272C124.332 28.2676 124.332 28.2676 124.332 28.2633C124.332 27.6875 125.167 27.6485 125.288 28.1507C125.297 28.1896 125.301 28.233 125.306 28.272V28.3412C125.314 29.2546 125.327 30.1638 125.336 31.0773C125.34 31.3369 125.34 31.5968 125.345 31.8565C125.383 35.5449 125.405 39.3588 124.838 43.0428Z" fill="#F80000"/>
<path d="M95.5642 65.528C95.5642 65.5409 95.5642 65.5496 95.5598 65.5583C95.5165 66.1125 94.7027 66.1428 94.5988 65.6535C94.5944 65.6492 94.5988 65.6448 94.5988 65.6448C94.5901 65.6059 94.5901 65.5669 94.5901 65.528C94.5944 65.4198 94.5944 65.3072 94.5988 65.1991C94.6075 64.7575 94.6204 64.3116 94.6334 63.8657C94.7201 60.753 94.8153 57.6318 94.5944 54.5235C94.5944 54.4976 94.5901 54.4759 94.5901 54.4499C94.5424 53.8221 95.5165 53.8265 95.564 54.4499C95.5943 54.8439 95.6159 55.2378 95.6333 55.6317C95.7936 58.9262 95.6422 62.2335 95.5642 65.528Z" fill="#F80000"/>
<path d="M120.933 64.7964C120.967 65.3722 120.08 65.6016 119.989 64.9999C119.98 64.935 119.972 64.8744 119.963 64.8095C119.786 63.593 119.673 62.3636 119.586 61.1341C119.552 60.593 119.522 60.0475 119.491 59.5021C119.418 58.1341 119.361 56.7573 119.374 55.3808V55.0907C119.383 54.7097 119.392 54.333 119.409 53.952C119.435 53.3417 120.375 53.3286 120.383 53.9174V53.952C120.301 55.7486 120.366 57.5495 120.457 59.3418C120.535 60.8656 120.63 62.3939 120.82 63.909C120.846 64.16 120.881 64.4111 120.915 64.6579C120.92 64.6579 120.92 64.6622 120.92 64.6666C120.92 64.6925 120.924 64.7143 120.929 64.7402C120.933 64.7618 120.933 64.7792 120.933 64.7964Z" fill="#F80000"/>
<path d="M110.82 9.91686C110.551 10.6398 110.231 11.3368 109.859 12.0079C109.686 12.3283 109.5 12.64 109.296 12.9429C109.045 13.3369 108.772 13.7177 108.478 14.09C105.98 17.2589 102.296 19.1896 98.4084 19.6139C98.101 19.6486 97.7893 19.6745 97.4819 19.6875C95.6983 19.7741 93.8887 19.5403 92.1484 18.9689C91.5553 18.7741 91.8108 17.8346 92.4081 18.0296C95.997 19.207 100.014 18.9257 103.356 17.1377C106.348 15.5403 108.703 12.839 109.88 9.65717C110.097 9.07258 111.036 9.32806 110.82 9.91686Z" fill="#F80000"/>
<path d="M98.3911 20.0901C96.0751 23.3759 92.8369 25.6833 89.1095 26.9474C88.8324 27.0426 88.5597 27.1335 88.2783 27.2114C87.7805 27.3587 87.274 27.4885 86.7588 27.5968C86.1441 27.7266 85.8844 26.7873 86.4992 26.6573C88.7243 26.1811 90.8152 25.4234 92.7417 24.1898C94.5903 23.008 96.2093 21.4755 97.4821 19.6875C97.508 19.6572 97.5297 19.627 97.5513 19.5967C97.7894 19.2634 98.2353 19.3586 98.4085 19.6141C98.4994 19.7437 98.5166 19.9126 98.3911 20.0901Z" fill="#F80000"/>
<path d="M87.365 34.1466C86.0619 33.3197 84.9278 32.2678 84.0533 30.995C83.958 30.8521 83.8628 30.7092 83.7762 30.5665C82.499 28.4842 82.0402 25.9906 82.4038 23.575C82.8584 20.5359 84.6073 17.8693 86.8238 15.8043C86.854 15.774 86.8887 15.7437 86.919 15.7134C87.3821 15.2892 88.0705 15.9774 87.6073 16.4018C87.4039 16.5922 87.2047 16.7827 87.01 16.9819C85.9927 18.0079 85.1052 19.1507 84.4428 20.4451C83.3085 22.6529 82.9146 25.2244 83.564 27.6357C83.8324 28.6314 84.2696 29.562 84.8368 30.3933C85.6204 31.5535 86.6551 32.5405 87.8541 33.3068C88.3823 33.64 87.8931 34.4843 87.365 34.1466Z" fill="#F80000"/>
<path d="M126.136 20.3109C124.95 20.7568 123.721 21.1853 122.456 21.2633C122.089 21.2849 121.712 21.2805 121.335 21.233C121.292 21.2286 121.253 21.2243 121.21 21.2157C119.534 20.9863 117.902 20.2503 116.4 19.5231C113.435 18.0858 110.656 16.0035 109.296 12.9429C109.231 12.8 109.171 12.6573 109.114 12.51C108.932 12.0339 109.513 11.7785 109.859 12.0079C109.941 12.0598 110.01 12.1378 110.054 12.2504C111.24 15.2981 114.045 17.3068 116.889 18.679C118.309 19.3673 119.885 20.0989 121.469 20.2764C122.993 20.4452 124.47 19.8954 125.876 19.376C126.465 19.155 126.721 20.0944 126.136 20.3109Z" fill="#F80000"/>
<path d="M125.305 28.2721V28.3414C125.288 28.5708 125.037 28.7613 124.816 28.7613C124.53 28.757 124.361 28.5363 124.331 28.2721C124.331 28.2678 124.331 28.2678 124.331 28.2634C124.019 25.7309 122.95 23.298 121.296 21.3586C121.257 21.3109 121.227 21.2634 121.21 21.2157C121.019 20.7611 121.617 20.2374 121.985 20.6702C122.149 20.865 122.309 21.0598 122.456 21.2634C123.993 23.2721 124.963 25.6358 125.288 28.151C125.296 28.1899 125.301 28.2331 125.305 28.2721Z" fill="#F80000"/>
<path d="M114.69 3.27604L114.686 3.28039C114.625 3.30918 114.555 3.31742 114.48 3.31442C114.44 3.31502 114.402 3.31082 114.365 3.30213C114.357 3.30213 114.352 3.29778 114.343 3.29778C111.534 2.41031 108.69 1.5056 105.759 1.13751C103.365 0.838842 100.936 0.916654 98.6202 1.60936C96.5597 2.22409 94.6201 3.27169 92.9752 4.65274C89.5812 7.50991 87.1698 11.9906 87.8712 16.5188C87.9492 17.0512 87.2608 17.3154 87.0097 16.9819C86.975 16.93 86.9448 16.8608 86.9317 16.7785C86.8797 16.4539 86.8452 16.1291 86.8235 15.8045C86.6546 13.4018 87.2304 11.0165 88.3387 8.86488C90.4254 4.82592 94.3214 1.77818 98.6851 0.574652C103.993 -0.888567 109.421 0.717542 114.491 2.32365C114.53 2.33669 114.564 2.34524 114.603 2.35829C115.067 2.50537 115.015 3.10706 114.69 3.27604Z" fill="#F80000"/>
<path d="M130.478 23.9127C130.249 26.1335 129.803 28.3846 128.785 30.389C128.785 30.3977 128.781 30.4019 128.777 30.4106C128.569 30.8175 128.062 30.6659 127.92 30.3369C127.863 30.2158 127.859 30.0686 127.937 29.9213C129.019 27.7913 129.426 25.3152 129.582 22.9514C129.894 18.3496 129.37 13.1461 126.772 9.2109C124.214 5.33207 119.5 2.11986 114.69 3.27571L114.686 3.28006C114.66 3.2844 114.629 3.28875 114.603 3.29745C114.517 3.31904 114.439 3.31904 114.365 3.3018C114.356 3.3018 114.352 3.29745 114.343 3.29745C113.932 3.17615 113.833 2.48795 114.343 2.35811C114.391 2.34506 114.443 2.33216 114.491 2.32347C117.27 1.66975 120.127 2.33217 122.547 3.79539C124.712 5.10282 126.547 6.97296 127.867 9.12454C129.188 11.2631 129.885 13.7307 130.261 16.1982C130.656 18.7481 130.738 21.3498 130.478 23.9127Z" fill="#F80000"/>
<path d="M89.2351 41.467C89.2525 41.7485 89.2307 42.0256 89.1658 42.2852C88.9147 43.3978 88.0056 44.2809 86.8454 44.4715H86.8411C86.7502 44.4845 86.6548 44.4974 86.5596 44.5017L85.8669 44.5451L85.4341 44.5754C83.8539 44.6749 82.4946 43.4757 82.395 41.8999L81.8583 33.4495C81.7759 32.1379 82.5899 30.9777 83.7761 30.5665C84.0142 30.4841 84.2697 30.4323 84.5337 30.415L84.8367 30.3933L85.6636 30.3414C86.6766 30.2765 87.603 30.7483 88.1572 31.5146C88.4689 31.9388 88.6637 32.454 88.6983 33.0168L89.2351 41.467Z" fill="#F80000"/>
<path d="M131.855 33.4497L131.314 41.9001C131.214 43.4759 129.855 44.6751 128.279 44.5755L127.149 44.5019C126.145 44.437 125.292 43.8612 124.837 43.043C124.573 42.5799 124.439 42.0388 124.474 41.4672L125.011 33.0169C125.037 32.5969 125.154 32.203 125.344 31.8567C125.833 30.9302 126.816 30.3155 127.92 30.3372C127.963 30.3372 128.006 30.3372 128.05 30.3416L128.785 30.3893L129.179 30.4152C130.755 30.5146 131.954 31.8739 131.855 33.4497Z" fill="#F80000"/>
<path d="M101.599 28.9346C101.621 29.4151 101.132 29.9736 100.625 29.9085C100.132 29.8436 99.6337 29.8133 99.1359 29.8177C98.8848 29.8177 98.6381 29.8264 98.387 29.8436C98.2702 29.848 98.1532 29.8608 98.0363 29.8695C97.993 29.8782 97.9454 29.8824 97.9021 29.8868C97.8977 29.8868 97.889 29.8911 97.8718 29.8911H97.8675C97.4128 29.9604 96.9713 30.0513 96.5384 30.1985C96.4561 30.2244 96.3739 30.2547 96.296 30.285H96.2916C96.2526 30.3068 96.2137 30.324 96.1747 30.3456C96.0102 30.4279 95.8544 30.5188 95.7028 30.627C95.2656 30.9474 94.6337 30.6876 94.3738 30.2807C94.0664 29.8045 94.3089 29.246 94.7202 28.9473C95.4734 28.4018 96.4431 28.1421 97.3523 28.0121C98.4389 27.852 99.5298 27.8217 100.625 27.9601C101.17 28.0297 101.573 28.3501 101.599 28.9346Z" fill="#F80000"/>
<path d="M118.383 29.9517C118.145 30.4063 117.482 30.5751 117.049 30.3024C116.963 30.2462 116.876 30.1941 116.781 30.1465C116.733 30.1205 116.686 30.0988 116.638 30.0772C116.586 30.0513 116.569 30.0382 116.569 30.0339V30.0295C116.5 30.0079 116.413 29.9905 116.37 29.9776C116.257 29.943 116.14 29.9084 116.028 29.8781C115.803 29.8175 115.573 29.7698 115.344 29.7352C115.335 29.7352 115.313 29.7265 115.292 29.7265C115.287 29.7221 115.283 29.7222 115.279 29.7222H115.266C115.257 29.7178 115.248 29.7135 115.244 29.7178C115.227 29.7178 115.205 29.7135 115.188 29.7135C115.075 29.7004 114.963 29.6875 114.85 29.6788C114.387 29.6442 113.919 29.6442 113.456 29.6832C113.4 29.6875 113.339 29.6919 113.283 29.6961C113.223 29.7004 113.205 29.7004 113.205 29.7004C113.131 29.7135 113.049 29.735 113.028 29.7394C112.846 29.774 112.668 29.8174 112.495 29.8736C111.976 30.0381 111.456 29.6788 111.296 29.1939C111.132 28.6787 111.495 28.1507 111.976 27.9947C112.906 27.6917 113.958 27.6571 114.924 27.7393C115.993 27.8259 117.114 28.0379 118.032 28.618C118.495 28.9126 118.638 29.4712 118.383 29.9517Z" fill="#F80000"/>
<path d="M100.625 34.1379C100.625 34.8694 100.032 35.4625 99.3002 35.4625C98.5643 35.4625 97.9712 34.8694 97.9712 34.1379C97.9712 33.402 98.5643 32.8088 99.3002 32.8088C100.032 32.8088 100.625 33.402 100.625 34.1379Z" fill="#1D1D1B"/>
<path d="M114.889 34.1379C114.889 34.8694 114.296 35.4625 113.565 35.4625C112.829 35.4625 112.236 34.8694 112.236 34.1379C112.236 33.402 112.829 32.8088 113.565 32.8088C114.296 32.8088 114.889 33.402 114.889 34.1379Z" fill="#1D1D1B"/>
<path d="M119.374 55.381C119.352 55.303 119.335 55.2294 119.314 55.1557C119.314 55.1471 119.309 55.1428 119.309 55.1342C119.266 54.9653 119.045 54.9091 118.928 55.0302C114.712 59.3031 109.067 60.3766 103.318 59.1775C102.673 59.0433 102.036 58.7878 101.369 58.7488C100.66 58.7098 100.673 58.8786 100.906 59.1124C100.997 59.2032 101.123 59.3072 101.253 59.4111C103.097 60.9089 105.422 62.4804 107.768 62.935C111.586 63.6752 115.361 62.9912 118.911 61.5237C119.149 61.4284 119.387 61.2985 119.586 61.134C119.759 60.9954 119.907 60.8266 119.998 60.6231C120.11 60.372 120.145 60.0777 120.136 59.7703C120.097 58.2987 119.746 56.8052 119.374 55.381Z" fill="#F80000"/>
<path d="M106.313 40.6879C106.309 40.6835 106.309 40.6706 106.309 40.6619C106.309 40.6273 106.322 40.597 106.322 40.6619C106.339 40.6706 106.348 40.6792 106.331 40.6922C106.326 40.6922 106.326 40.6879 106.326 40.6879C106.326 40.6922 106.326 40.6922 106.326 40.6966L106.322 40.7009C106.322 40.6966 106.322 40.6922 106.318 40.688H106.313V40.6879Z" fill="#F80000"/>
<path d="M108.114 41.6706C107.326 41.6532 106.179 41.9823 105.569 41.3112C105.287 40.9995 105.279 40.4757 105.257 40.086C105.222 39.48 105.236 38.8653 105.253 38.2592C105.292 37.0082 105.383 35.757 105.43 34.5059C105.452 33.8825 106.426 33.8825 106.404 34.5059C106.348 35.9822 106.231 37.4539 106.214 38.9258C106.21 39.2635 106.21 39.6012 106.223 39.9345C106.236 40.2072 106.262 40.4279 106.292 40.5967C106.296 40.6183 106.305 40.6401 106.309 40.6616C106.274 40.6529 106.231 40.666 106.313 40.6876C106.309 40.7005 106.313 40.7048 106.322 40.7005C106.326 40.7092 106.326 40.7179 106.326 40.7264V40.6961C106.331 40.6961 106.331 40.6918 106.331 40.6918C106.339 40.6961 106.352 40.6961 106.365 40.7005C106.435 40.7135 106.5 40.7351 106.569 40.7395C107.075 40.7957 107.604 40.6876 108.114 40.6961C108.742 40.7051 108.742 41.6793 108.114 41.6706Z" fill="#F80000"/>
<path d="M112.911 46.203C112.305 45.7961 111.339 45.7268 110.643 45.6056C107.725 45.0992 104.716 45.3675 101.902 46.2723C101.811 46.2982 101.742 46.3459 101.69 46.3979C101.543 46.5018 101.447 46.6793 101.508 46.9044C101.82 48.0992 102.331 49.1555 103.387 49.8655C104.175 50.3935 105.127 50.6403 106.058 50.7616C107.266 50.9174 108.534 50.9174 109.707 50.5625C111.158 50.121 112.79 49.0431 113.231 47.4975C113.361 47.0384 113.344 46.493 112.911 46.203ZM112.331 47.0645C112.283 47.3806 112.149 47.6793 111.954 47.952C111.439 48.6879 110.504 49.2377 109.772 49.5104C108.785 49.8784 107.746 49.926 106.707 49.8524C105.863 49.7918 104.98 49.6359 104.227 49.2333C103.69 48.9476 103.309 48.5624 103.028 48.1034C102.837 47.7961 102.694 47.454 102.577 47.0861C104.794 46.4237 107.188 46.1207 109.487 46.4065C110.188 46.493 110.885 46.623 111.569 46.7831C111.829 46.8393 112.084 46.9476 112.335 47.0081C112.339 47.0212 112.335 47.0428 112.331 47.0645Z" fill="#F80000"/>
<path d="M112.335 47.0081C112.34 47.0211 112.335 47.0427 112.331 47.0643C112.283 47.3804 112.149 47.679 111.954 47.9518C109.006 47.3544 105.954 47.3976 103.028 48.1034C102.837 47.796 102.694 47.454 102.577 47.086C104.794 46.4236 107.188 46.1206 109.487 46.4064C110.188 46.4929 110.885 46.6229 111.569 46.783C111.829 46.8393 112.084 46.9475 112.335 47.0081Z" fill="white"/>
<path d="M112.01 47.965C111.993 47.9607 111.971 47.9563 111.954 47.952C109.006 47.3546 105.954 47.3978 103.028 48.1036C102.95 48.1208 102.867 48.1382 102.789 48.1598C102.651 48.1944 102.625 48.3286 102.668 48.4325C102.642 48.4931 102.651 48.5624 102.716 48.6187C104.781 50.4066 107.876 50.9132 110.361 49.74C111.071 49.4066 111.703 48.9218 112.123 48.2551C112.188 48.1556 112.14 47.991 112.01 47.965Z" fill="#F80000"/>
<path d="M95.1659 50.7788C95.1615 50.7832 95.153 50.7832 95.1443 50.7832C94.469 50.7961 93.785 50.7529 93.1097 50.6577V50.6533C92.6897 50.5971 92.2742 50.5148 91.8673 50.4065V50.4022C90.6812 50.0992 89.5556 49.5883 88.5729 48.8394C87.153 47.7572 86.2092 46.2506 85.8672 44.5449C85.7805 44.1337 85.733 43.7095 85.72 43.2765C85.7027 42.6487 86.6767 42.6487 86.6939 43.2765C86.707 43.6834 86.7545 44.086 86.8412 44.4713H86.8455C87.1658 45.9346 87.997 47.2246 89.2437 48.1338C89.8801 48.597 90.5728 48.952 91.3044 49.2117V49.216C91.707 49.3589 92.127 49.4757 92.5468 49.5624C93.3996 49.7486 94.2741 49.8221 95.1443 49.8092H95.1659C95.7632 49.8177 95.7632 50.7484 95.1659 50.7788Z" fill="#F80000"/>
<path d="M98.9366 49.7008V51.1078C98.9366 51.7615 98.4084 52.2896 97.7548 52.2896H96.3478C95.6941 52.2896 95.166 51.7615 95.166 51.1078V49.7008C95.166 49.0471 95.6942 48.519 96.3478 48.519H97.7548C98.4084 48.519 98.9366 49.0471 98.9366 49.7008Z" fill="#F80000"/>
<path d="M120.959 64.8181C120.959 64.8744 120.95 64.9351 120.928 65C120.305 66.7965 118.742 68.0088 117.076 68.7967C114.513 70.0087 111.595 70.537 108.694 70.6193C108.681 70.6193 108.664 70.6236 108.651 70.6193L108.647 70.6236C108.196 70.6323 107.746 70.6367 107.3 70.6236C107.287 70.628 107.275 70.628 107.261 70.6236C106.27 70.6064 105.292 70.5371 104.339 70.4289C102.283 70.1951 100.236 69.7664 98.3306 68.9353C96.8804 68.299 95.4344 67.3639 94.6552 65.944C94.599 65.8444 94.5816 65.7449 94.599 65.6539C94.5946 65.6495 94.599 65.6452 94.599 65.6452C94.6509 65.2426 95.2527 65.0045 95.4952 65.4504C95.5168 65.4894 95.5341 65.524 95.5601 65.5587C96.387 66.97 97.9844 67.8011 99.4648 68.3466C103.248 69.7449 107.612 69.944 111.578 69.3552C113.439 69.0824 115.327 68.6235 117.002 67.7491C118.244 67.0997 119.461 66.1645 119.963 64.8096C119.972 64.788 119.98 64.7619 119.989 64.7403C120.093 64.4502 120.37 64.3637 120.599 64.4242V64.4286C120.734 64.4589 120.855 64.5369 120.916 64.658C120.92 64.658 120.92 64.6623 120.92 64.6667C120.941 64.71 120.954 64.7619 120.954 64.8181H120.959Z" fill="#F80000"/>
<path d="M108.673 70.5975L108.668 70.6018C108.66 70.6105 108.655 70.6149 108.651 70.6192L108.647 70.6236C108.413 70.8314 108.192 71.0523 107.98 71.2773C105.504 73.931 104.344 77.6238 101.456 79.9442C101.404 79.9832 101.352 80.0134 101.3 80.0308C101.296 80.0308 101.292 80.0308 101.287 80.0352C100.833 80.1781 100.335 79.6023 100.768 79.256C100.867 79.178 100.963 79.0958 101.058 79.0135C103.72 76.7018 104.885 73.1822 107.261 70.6237C107.266 70.615 107.274 70.6065 107.279 70.6022C107.499 70.3641 107.729 70.139 107.971 69.9181C107.976 69.9181 107.976 69.9181 107.98 69.9138C108.443 69.4979 109.132 70.1775 108.673 70.5975Z" fill="#F80000"/>
<path d="M101.3 80.0303C101.296 80.0303 101.291 80.0303 101.287 80.0347C101.166 80.0909 101.019 80.0952 100.867 80.0173C97.8109 78.4588 95.4818 75.6102 93.9406 72.5973C93.2089 71.16 92.4341 69.5106 92.4515 67.8613C92.4515 67.8223 92.4515 67.7876 92.4558 67.7487C92.4689 67.3374 92.5381 66.9435 92.6593 66.5711C92.9753 65.5407 93.655 64.6576 94.5122 63.939C94.5511 63.9043 94.5901 63.8784 94.6335 63.8653C95.0966 63.6488 95.6464 64.2594 95.2049 64.6273C94.9884 64.8092 94.7849 64.9996 94.5988 65.1987C94.1442 65.688 93.7893 66.2334 93.5988 66.8482C93.5598 66.9695 93.5251 67.0906 93.4992 67.2117V67.2161C93.4299 67.5668 93.4083 67.9304 93.443 68.3157C93.5728 69.7833 94.3218 71.2681 95.0145 72.5496C96.4301 75.1514 98.4345 77.5799 101.058 79.0129C101.157 79.0734 101.257 79.1255 101.357 79.1773C101.759 79.3809 101.616 79.8745 101.3 80.0303Z" fill="#F80000"/>
<path d="M114.915 80.065C114.894 80.0737 114.872 80.0737 114.85 80.0737C114.729 80.0868 114.603 80.0478 114.491 79.9439C113.184 78.7231 112.253 77.0824 111.27 75.6018C110.266 74.0995 109.244 72.5758 107.98 71.277C107.764 71.052 107.534 70.8311 107.3 70.6233C107.292 70.6146 107.287 70.6104 107.279 70.6017C106.811 70.1861 107.499 69.4977 107.967 69.9134L107.971 69.9177C108.214 70.1342 108.452 70.3636 108.673 70.5974C108.686 70.6061 108.694 70.6104 108.694 70.6191C109.945 71.9048 110.967 73.4027 111.958 74.8833C112.876 76.2643 113.738 77.801 114.915 79.0002C115.002 79.0867 115.088 79.1734 115.179 79.2555C115.504 79.5585 115.253 79.9914 114.915 80.065Z" fill="#F80000"/>
<path d="M123.495 67.9393C123.487 69.5584 122.729 71.1774 122.002 72.5973C120.465 75.6103 118.136 78.4589 115.08 80.0173C115.023 80.0432 114.967 80.0606 114.915 80.065C114.894 80.0737 114.872 80.0737 114.85 80.0737C114.404 80.0737 114.11 79.4243 114.59 79.1775C114.699 79.1213 114.807 79.0649 114.915 79C117.526 77.5627 119.521 75.1428 120.928 72.5496C121.621 71.2725 122.374 69.7833 122.504 68.3158C122.634 66.8785 121.976 65.7399 120.959 64.8179H120.954C120.95 64.8049 120.941 64.8007 120.933 64.7963C120.872 64.7401 120.807 64.6837 120.742 64.6275C120.669 64.5669 120.621 64.4977 120.599 64.4284V64.424C120.534 64.2293 120.647 64.0215 120.82 63.9089C120.993 63.7963 121.231 63.7747 121.431 63.9391C121.972 64.3894 122.439 64.9088 122.79 65.4845C123.011 65.8439 123.188 66.2248 123.305 66.6273C123.431 67.0431 123.5 67.4803 123.495 67.9393Z" fill="#F80000"/>
<path d="M93.4992 67.2121V67.2165C93.4602 67.2555 93.4169 67.2901 93.3563 67.316C93.0533 67.4589 92.7546 67.6018 92.4558 67.7489C90.6636 68.6017 88.88 69.4761 87.1051 70.3767C86.9536 70.4503 86.8021 70.5239 86.6548 70.6061C86.4947 70.684 86.3344 70.7618 86.1743 70.8485C81.9447 73.0001 77.7673 75.2641 73.6545 77.6409C69.0873 80.2817 64.386 82.9483 60.2517 86.2731C60.0915 86.3986 59.9356 86.5242 59.7798 86.6541C59.6284 86.7796 59.4768 86.9052 59.3295 87.0307C59.0958 87.2255 58.8664 87.4248 58.6368 87.6281C56.494 89.5198 54.5589 91.6672 53.1 94.139C51.5416 96.784 50.5459 99.7106 49.8272 102.685C48.4463 108.425 47.8012 114.373 47.1951 120.239C46.5934 126.04 46.1432 131.863 45.7535 137.685C45.7448 137.763 45.7405 137.837 45.7363 137.915C45.7103 138.313 45.3034 138.46 45.0263 138.347C45.022 138.347 45.022 138.347 45.022 138.347C44.9355 138.313 44.866 138.257 44.8185 138.174C44.8142 138.17 44.8142 138.166 44.8142 138.166L44.8098 138.161C44.7752 138.096 44.7536 138.014 44.7621 137.914C44.7837 137.568 44.8098 137.222 44.8357 136.876C45.2686 130.503 45.7752 124.131 46.485 117.784C46.814 114.845 47.1864 111.914 47.6409 108.992C48.1127 105.979 48.6495 102.961 49.5326 100.035C50.3985 97.1822 51.6106 94.4159 53.3422 91.9787C55.0176 89.628 57.0825 87.5891 59.3249 85.7795C59.3292 85.7752 59.3378 85.7708 59.3421 85.7666C59.3984 85.7189 59.4547 85.6758 59.511 85.6324C64.26 81.8229 69.6626 78.7795 74.9441 75.7838C80.7321 72.4979 86.6455 69.4244 92.6587 66.5714C92.7279 66.5368 92.7929 66.5022 92.8621 66.4719C93.2128 66.3118 93.5331 66.5627 93.598 66.8485C93.6247 66.9784 93.5988 67.1126 93.4992 67.2121Z" fill="#F80000"/>
<path d="M69.6158 147.313C69.3646 147.473 68.9751 147.426 68.8755 147.053C68.6895 146.339 68.5033 145.629 68.3214 144.915C67.2651 140.746 66.317 136.551 65.4642 132.339C63.7542 123.884 62.3862 115.36 61.2911 106.802C60.4513 100.234 59.7629 93.6411 59.3301 87.0306C59.3041 86.706 59.2867 86.3813 59.2651 86.0567C59.2564 85.9355 59.2867 85.8401 59.3431 85.7667C59.3864 85.7061 59.447 85.6584 59.5119 85.6325C59.6808 85.5589 59.8973 85.5806 60.0487 85.6974C60.1526 85.771 60.2262 85.8922 60.2391 86.0567C60.2435 86.1303 60.2478 86.1995 60.2522 86.2732C60.4729 89.7667 60.7717 93.2603 61.118 96.7453C61.9232 104.78 62.9925 112.789 64.3216 120.754C65.7761 129.486 67.5381 138.175 69.7978 146.733C69.7978 146.733 69.7978 146.738 69.8021 146.738C69.8065 146.755 69.8109 146.777 69.8152 146.794C69.8755 147.032 69.7759 147.213 69.6158 147.313Z" fill="#F80000"/>
<path d="M173.228 115.503C173.302 116.126 172.327 116.118 172.254 115.503C172.245 115.421 172.232 115.334 172.224 115.252C171.57 109.676 170.843 104.013 168.886 98.719C166.994 93.602 163.518 89.602 159.401 86.2815C159.258 86.1689 159.115 86.0521 158.972 85.9395C158.873 85.8659 158.778 85.7881 158.678 85.7145C156.427 83.9698 154.003 82.4157 151.557 80.9871C144.297 76.7404 136.803 72.8744 129.18 69.3073C129.011 69.2294 128.846 69.1515 128.678 69.0736C128.513 68.9956 128.344 68.9178 128.18 68.8398C126.561 68.0866 124.937 67.3507 123.305 66.6277C123.093 66.5325 122.877 66.4373 122.664 66.3421C122.219 66.143 122.413 65.6018 122.79 65.4849C122.898 65.4459 123.024 65.4459 123.154 65.5023C128.89 68.0392 134.552 70.7404 140.124 73.6193C144.773 76.0219 149.409 78.4982 153.873 81.2341C157.513 83.4678 161.046 85.9875 163.977 89.1174C166.951 92.2906 169.115 96.0137 170.397 100.17C171.908 105.079 172.6 110.148 173.198 115.239C173.206 115.325 173.219 115.416 173.228 115.503Z" fill="#F80000"/>
<path d="M159.418 86.2295C159.414 86.2468 159.405 86.2642 159.401 86.2814C158.652 88.4112 157.972 90.5628 157.353 92.736C155.236 100.191 153.903 107.831 152.708 115.481C152.682 115.645 152.656 115.81 152.63 115.974C152.539 116.546 151.734 116.364 151.686 115.849C151.682 115.806 151.682 115.762 151.691 115.715C151.704 115.641 151.712 115.568 151.725 115.494C152.063 113.321 152.409 111.148 152.786 108.983C154.128 101.182 155.855 93.4503 158.479 85.9695C158.522 85.8527 158.591 85.7661 158.678 85.7142C158.777 85.6493 158.903 85.6275 159.02 85.6406C159.293 85.6712 159.535 85.9006 159.418 86.2295Z" fill="#F80000"/>
<path d="M38.1997 140.646C38.1953 140.646 38.1866 140.642 38.1823 140.642C36.8012 140.278 35.4203 139.945 34.0177 139.663C33.0697 139.477 32.1042 139.347 31.1821 139.044C30.2513 138.741 29.4159 138.248 28.6107 137.694C27.0177 136.603 25.5934 135.282 24.0046 134.183C23.26 133.663 22.3335 133.369 21.4288 133.616C20.4331 133.889 20.3205 134.889 20.5673 135.759C20.8962 136.932 21.5933 138.001 22.4287 138.923C22.8833 139.43 23.3811 139.889 23.8833 140.3C23.9005 140.313 23.9135 140.326 23.9266 140.343C23.9959 140.408 24.0348 140.486 24.0435 140.564C24.0954 140.932 23.5804 141.304 23.1951 140.988C23.1778 140.975 23.1648 140.962 23.1474 140.949C22.2296 140.196 21.4158 139.33 20.7621 138.339C20.1691 137.434 19.6019 136.404 19.4893 135.313C19.3984 134.421 19.6755 133.508 20.446 132.997C21.1862 132.508 22.1689 132.49 23.0132 132.664C24.0479 132.88 24.879 133.594 25.6972 134.231C26.5631 134.897 27.3985 135.599 28.2687 136.252C29.1431 136.906 30.0739 137.594 31.1 137.984C32.1216 138.378 33.2125 138.516 34.2775 138.724C35.1217 138.893 35.9615 139.084 36.797 139.291C37.126 139.369 37.4595 139.451 37.7884 139.538C38.0135 139.59 38.2343 139.651 38.4594 139.707C38.4637 139.707 38.4637 139.707 38.4681 139.711C39.0611 139.871 38.8057 140.802 38.1997 140.646Z" fill="#F80000"/>
<path d="M38.0394 144.625H38.035C38.0004 144.612 37.9658 144.599 37.9268 144.581C36.035 143.633 33.9138 143.304 32.0133 142.378C30.299 141.547 28.8921 140.261 27.3812 139.131C26.7275 138.642 26.0306 138.07 25.234 137.837C24.7881 137.707 24.3596 137.724 23.9527 137.954C23.4331 138.248 23.3553 138.594 23.4895 139.148C23.5891 139.568 23.7406 139.962 23.9267 140.343C23.9613 140.417 24.0003 140.495 24.0437 140.564C24.6281 141.664 25.5025 142.625 26.3294 143.534C27.035 144.309 27.7754 145.053 28.5243 145.785C29.1304 146.382 29.7451 146.967 30.3555 147.556C30.4291 147.625 30.4984 147.694 30.572 147.763C30.6197 147.811 30.6585 147.863 30.6803 147.915C30.6803 147.919 30.6846 147.919 30.6846 147.924C30.8665 148.331 30.3167 148.807 29.9228 148.486C29.9184 148.482 29.9184 148.482 29.9141 148.478C29.9054 148.469 29.8925 148.46 29.8838 148.452C28.0873 146.725 26.256 145.015 24.65 143.101C24.0871 142.43 23.5504 141.724 23.1478 140.949C23.1001 140.859 23.0526 140.768 23.0093 140.672C22.7842 140.188 22.4984 139.542 22.4292 138.923C22.3989 138.599 22.4248 138.278 22.5547 138.001C22.9313 137.209 23.9702 136.733 24.8101 136.776C25.7148 136.824 26.533 137.322 27.2517 137.832C28.966 139.053 30.5114 140.551 32.412 141.495C34.1869 142.374 36.1523 142.72 37.9532 143.521C38.109 143.59 38.2649 143.66 38.4163 143.738C38.9399 144.001 38.5502 144.746 38.0394 144.625Z" fill="#F80000"/>
<path d="M56.2951 152.638C55.5028 154.672 53.8492 156.287 51.8448 157.118C49.9011 157.919 47.6369 158.105 45.6023 157.551C44.3859 157.218 43.256 156.608 42.1737 155.971C41.1131 155.348 40.0524 154.729 38.9746 154.136C38.914 154.101 38.8534 154.071 38.7927 154.036C38.5415 153.902 38.2949 153.763 38.0438 153.629C35.8749 152.456 33.6628 151.3 31.6367 149.906C31.0263 149.486 30.4332 149.023 29.9224 148.486C29.918 148.482 29.918 148.482 29.9137 148.478C29.6843 148.239 29.4677 147.98 29.2773 147.707C28.9094 147.179 28.589 146.478 28.5241 145.785C28.4938 145.49 28.5112 145.196 28.589 144.915C29.0868 143.153 31.4461 143.677 32.6972 144.084C34.6453 144.72 36.3682 145.858 38.2645 146.607C38.2991 146.625 38.3381 146.638 38.3727 146.646C38.3901 146.659 38.4117 146.664 38.4289 146.668C38.4766 146.69 38.5198 146.707 38.5675 146.724C38.8143 146.815 39.0653 146.897 39.3207 146.967C40.1476 147.205 41.0005 147.326 41.8706 147.291C42.6931 147.257 43.5198 147.144 44.3425 147.079C46.0525 146.945 48.139 146.659 49.7451 147.413C50.3122 147.681 49.8188 148.521 49.2559 148.257C48.4939 147.897 47.5546 147.928 46.7364 147.936C45.732 147.945 44.7321 148.019 43.732 148.105C42.8922 148.179 42.0437 148.3 41.1952 148.265C40.1043 148.218 39.035 147.954 38.022 147.551C36.2427 146.854 34.6194 145.811 32.8227 145.157C31.9612 144.845 29.2469 143.915 29.5109 145.75C29.6105 146.434 29.9222 147.031 30.3551 147.555C30.4546 147.681 30.5629 147.798 30.6798 147.915C30.6798 147.919 30.6842 147.919 30.6842 147.923C31.537 148.789 32.6885 149.447 33.6322 150.01C35.8487 151.335 38.1214 152.555 40.3812 153.798C42.3207 154.863 44.1692 156.287 46.3727 156.733C48.2471 157.114 50.3295 156.833 52.0351 155.962C53.5676 155.179 54.8879 153.776 55.4421 152.127C56.0092 150.456 55.468 148.971 54.269 147.837C54.2647 147.833 54.256 147.828 54.2516 147.824C54.1174 147.694 53.9745 147.573 53.8231 147.456C53.4031 147.131 53.8318 146.594 54.269 146.664C54.2733 146.664 54.2733 146.664 54.2733 146.664C54.3557 146.677 54.4378 146.707 54.5114 146.768C54.6933 146.91 54.8665 147.062 55.0266 147.218L55.031 147.222L55.0353 147.226C55.2128 147.395 55.3773 147.577 55.5246 147.763V147.768C55.5246 147.768 55.5289 147.772 55.5289 147.776C56.6198 149.14 56.9749 150.876 56.2951 152.638Z" fill="#F80000"/>
<path d="M54.702 148.222C54.5635 148.088 54.4163 147.958 54.2692 147.837C54.2648 147.832 54.2561 147.828 54.2518 147.824C53.8146 147.469 53.3514 147.162 52.8751 146.841C52.3514 146.482 51.992 146.019 51.7149 145.452C51.3945 144.798 51.1435 144.127 50.7409 143.512C50.3124 142.85 49.7798 142.261 49.2084 141.716C48.1652 140.716 46.9832 139.884 45.8448 139.006C45.5633 138.789 45.2906 138.573 45.0266 138.348C45.0222 138.348 45.0222 138.348 45.0222 138.348C44.9529 138.287 44.8837 138.231 44.8188 138.174C44.8144 138.17 44.8144 138.166 44.8144 138.166L44.8101 138.161C43.9875 137.46 43.2299 136.711 42.5417 135.854C41.5374 134.607 40.5633 133.339 39.5806 132.083C39.0178 131.365 38.4594 130.646 37.8923 129.936C37.5288 129.473 37.1391 128.975 36.6239 128.668C35.6974 128.109 34.6975 128.793 34.5719 129.793C34.4464 130.767 34.8403 131.815 35.2169 132.694C35.6151 133.612 36.1303 134.46 36.5806 135.348C37.2472 136.668 37.719 138.057 37.7884 139.538C37.7928 139.564 37.7928 139.59 37.7928 139.616C37.8144 140.244 36.8404 140.244 36.8188 139.616C36.8145 139.508 36.8058 139.395 36.7972 139.291C36.5504 136.408 34.4509 134.222 33.7669 131.464C33.5331 130.534 33.4379 129.447 33.9703 128.598C34.5591 127.659 35.7625 127.209 36.7929 127.659C38.1306 128.243 39.0137 129.798 39.8794 130.897C40.953 132.27 42.018 133.646 43.1045 135.005C43.6413 135.681 44.2214 136.3 44.8362 136.876C45.1306 137.153 45.4378 137.425 45.7539 137.685C46.0656 137.949 46.3859 138.2 46.715 138.451C47.0137 138.681 47.3167 138.906 47.6155 139.135C47.9662 139.404 48.3168 139.672 48.6631 139.949C49.2042 140.386 49.7281 140.841 50.2173 141.339C50.7238 141.854 51.1913 142.412 51.581 143.018C51.9013 143.508 52.1265 144.036 52.3689 144.564C52.4295 144.698 52.4901 144.828 52.5551 144.962C52.6763 145.218 52.8366 145.438 53.0183 145.637C53.3733 146.031 53.8191 146.347 54.2693 146.663C54.2737 146.663 54.2737 146.663 54.2737 146.663C54.529 146.845 54.7845 147.023 55.027 147.218L55.0313 147.222L55.0357 147.226C55.1612 147.326 55.2781 147.425 55.3907 147.534C55.4643 147.607 55.5077 147.681 55.5249 147.763V147.767C55.5249 147.767 55.5292 147.772 55.5292 147.776C55.6113 148.174 55.0743 148.586 54.702 148.222Z" fill="#F80000"/>
<path d="M39.4465 139.863C38.9703 140.936 38.8751 142.122 38.9141 143.283C38.9357 143.867 38.992 144.452 39.0569 145.032C39.0872 145.335 39.1262 145.638 39.1609 145.941C39.1783 146.071 39.1911 146.2 39.2085 146.33C39.2172 146.417 39.2259 146.499 39.2388 146.586C39.2475 146.59 39.2519 146.599 39.2562 146.608C39.3298 146.724 39.3427 146.846 39.3211 146.967C39.3081 147.023 39.2865 147.084 39.2606 147.144C39.1654 147.335 38.9057 147.417 38.7108 147.365C38.3514 147.27 38.3082 146.971 38.2692 146.651C38.2692 146.638 38.2648 146.621 38.2648 146.608C38.2259 146.257 38.1825 145.906 38.1393 145.551C38.1004 145.244 38.0657 144.932 38.0398 144.625H38.0354C38.0008 144.257 37.9705 143.889 37.9531 143.521C37.9488 143.508 37.9488 143.49 37.9488 143.477C37.9054 142.516 37.9575 141.564 38.1825 140.642C38.2561 140.33 38.347 140.018 38.4683 139.711C38.5116 139.598 38.555 139.482 38.6068 139.369C38.8577 138.798 39.6976 139.296 39.4465 139.863Z" fill="#F80000"/>
<path d="M74.2089 162.807C73.9839 166.058 73.1786 169.283 71.7284 172.21C70.8409 173.998 69.6461 175.565 68.1526 176.777C67.9664 176.937 67.7716 177.084 67.5725 177.223C67.33 177.4 67.0832 177.569 66.8235 177.721C66.0659 178.184 65.2434 178.565 64.3603 178.85C57.8234 180.967 50.2345 178.132 45.7236 173.214C43.4551 170.738 41.9182 167.807 40.5633 164.759C39.0048 161.257 37.6325 157.521 38.0438 153.629C38.0481 153.586 38.0524 153.538 38.0568 153.495C38.1304 152.88 39.1044 152.872 39.0308 153.495C39.0048 153.707 38.9874 153.919 38.9746 154.136C38.9399 154.599 38.9312 155.062 38.9486 155.53C38.953 155.742 38.9617 155.954 38.9789 156.17C39.0741 157.378 39.3122 158.573 39.6542 159.75C40.3426 162.175 41.4507 164.525 42.5417 166.733C43.8576 169.391 45.5504 171.872 47.7626 173.868C52.5029 178.136 60.4727 180.322 66.2781 176.941C69.1137 175.292 70.815 172.37 71.88 169.357C72.9147 166.435 73.3778 163.326 73.2783 160.231C73.0791 153.742 70.3172 147.318 65.1266 143.274C62.7628 141.434 59.8321 140.508 56.9013 140.04C54.1955 139.612 51.3861 139.573 48.6631 139.95C48.3731 139.993 48.0786 140.036 47.7886 140.088C47.1739 140.192 46.9142 139.252 47.529 139.149C47.5592 139.144 47.5852 139.14 47.6156 139.136C48.3386 139.01 49.0701 138.91 49.7975 138.846C53.0269 138.551 56.3561 138.772 59.5033 139.586C61.0055 139.975 62.4817 140.517 63.8454 141.266C65.3258 142.079 66.6549 143.188 67.8325 144.395C67.9969 144.564 68.1614 144.737 68.3217 144.915C68.5641 145.183 68.8022 145.456 69.0316 145.738C69.3 146.062 69.5555 146.391 69.798 146.733C69.798 146.733 69.798 146.738 69.8023 146.738C73.1309 151.326 74.5899 157.162 74.2089 162.807Z" fill="#F80000"/>
<path d="M60.161 156.352C59.3818 159.326 57.3947 161.993 54.7194 163.525C51.5375 165.348 47.5029 165.413 44.2127 163.833C42.3425 162.932 40.7667 161.491 39.6542 159.751C38.9096 158.595 38.3685 157.305 38.0784 155.958C37.9572 155.417 38.6888 155.149 38.9485 155.53C38.9787 155.573 39.0047 155.633 39.0177 155.698C39.7797 159.253 42.3728 162.296 45.8491 163.448C48.992 164.491 52.5245 164.01 55.2085 162.049C57.4466 160.408 58.9834 157.846 59.4293 155.11C59.7713 153.002 59.3513 150.759 58.2691 148.911C57.1436 146.993 55.1392 146.019 53.0179 145.638C52.8188 145.599 52.6197 145.568 52.4206 145.543C51.8274 145.469 51.8015 144.547 52.3687 144.564C52.386 144.564 52.4033 144.564 52.4206 144.569C55.3124 144.941 58.031 146.188 59.3687 148.902C60.516 151.227 60.8191 153.837 60.161 156.352Z" fill="#F80000"/>
<path d="M108.504 109.126C108.504 109.152 108.499 109.182 108.495 109.209C108.447 109.425 108.253 109.624 108.01 109.633C107.932 109.637 107.85 109.62 107.763 109.577C107.681 109.533 107.599 109.494 107.521 109.447C104.179 107.698 101.196 105.317 98.6809 102.507C94.3042 97.6241 91.3042 91.6327 89.2607 85.4421C87.6979 80.7234 86.646 75.8013 86.1742 70.8488C86.1526 70.6625 86.1352 70.4721 86.1221 70.2859C86.1178 70.26 86.1134 70.2382 86.1134 70.2123C86.0572 69.5889 87.0312 69.5932 87.0874 70.2123C87.0918 70.2685 87.0961 70.3205 87.1048 70.3768C87.3213 72.8747 87.7108 75.3552 88.226 77.8142C89.4598 83.706 91.4121 89.507 94.3734 94.7625C97.6072 100.507 102.127 105.529 108.01 108.607C108.092 108.65 108.174 108.693 108.257 108.737C108.434 108.828 108.508 108.975 108.504 109.126Z" fill="#F80000"/>
<path d="M128.712 76.5196C127.76 82.8746 125.699 89.1474 122.612 94.7926C119.318 100.819 114.638 106.234 108.495 109.451C108.417 109.494 108.335 109.538 108.257 109.577C108.171 109.62 108.088 109.637 108.01 109.633C107.751 109.624 107.543 109.395 107.521 109.161V109.157C107.517 109.122 107.517 109.087 107.521 109.053C107.538 108.932 107.612 108.815 107.764 108.737C107.846 108.693 107.928 108.65 108.01 108.607C111.357 106.849 114.288 104.425 116.768 101.576C121.171 96.5199 124.162 90.286 126.063 83.892C127.491 79.0911 128.539 73.8789 128.179 68.8399C128.175 68.736 128.167 68.6277 128.158 68.5238C128.106 67.9004 129.08 67.9047 129.132 68.5238C129.136 68.6018 129.145 68.6796 129.149 68.7576C129.162 68.9394 129.175 69.1255 129.179 69.3074C129.305 71.7143 129.071 74.1429 128.712 76.5196Z" fill="#F80000"/>
<path d="M107.522 109.158C107.522 111.62 107.522 114.081 107.522 116.543C107.522 117.169 108.496 117.17 108.496 116.543C108.496 114.081 108.496 111.62 108.496 109.158C108.496 108.531 107.522 108.53 107.522 109.158Z" fill="#F80000"/>
<path d="M66.9012 177.73C72.2756 177.833 77.6524 177.913 83.0279 177.914C83.6547 177.914 83.6557 176.94 83.0279 176.94C77.6524 176.939 72.2756 176.859 66.9012 176.756C66.2742 176.744 66.2742 177.718 66.9012 177.73Z" fill="#F80000"/>
<path d="M71.1918 119.656C77.6272 119.705 84.0638 119.681 90.4991 119.675C91.7707 119.674 93.0423 119.673 94.314 119.668C94.9405 119.665 94.9419 118.691 94.314 118.694C87.918 118.719 81.5216 118.709 75.1255 118.696C73.8143 118.694 72.503 118.692 71.1918 118.682C70.5649 118.677 70.5643 119.651 71.1918 119.656Z" fill="#F80000"/>
<path d="M67.9231 62.1947L66.1092 57.5929V35.8695C66.1092 33.5145 64.1914 31.5967 61.8407 31.5967H4.26851C1.91347 31.5967 0 33.5145 0 35.8695V58.4759C0 60.8309 1.91347 62.7444 4.26851 62.7444H60.646C60.7499 62.8006 60.8625 62.8353 60.9793 62.8527L66.7239 63.7055C66.7802 63.7142 66.8365 63.7185 66.8928 63.7185C67.2304 63.7185 67.5465 63.5669 67.763 63.2986C68.0098 62.9826 68.0747 62.5712 67.9231 62.1947ZM66.8842 62.6363L61.1265 61.7748L60.9793 61.6622H4.26851C2.51097 61.6622 1.08223 60.2336 1.08223 58.4759V35.8695C1.08223 34.112 2.51082 32.6791 4.26851 32.6791H61.8408C63.5984 32.6791 65.027 34.112 65.027 35.8695V57.7964L66.9187 62.593L66.8842 62.6363Z" fill="#F80000"/>
<path d="M65.027 57.7963V35.8694C65.027 34.1119 63.5984 32.679 61.8409 32.679H4.26855C2.51101 32.679 1.08228 34.1119 1.08228 35.8694V58.4758C1.08228 60.2333 2.51086 61.6621 4.26855 61.6621H60.9795L61.1267 61.7747L66.8844 62.6362L66.919 62.5929L65.027 57.7963ZM17.5674 41.9734C19.4332 41.9908 21.2991 41.9821 23.1649 41.9865C29.7279 41.9908 36.2907 41.9908 42.8535 41.9908C47.3645 41.9908 51.8796 42.0037 56.3906 41.9821C57.4815 41.9778 57.4772 43.6662 56.3906 43.6704C54.5551 43.6791 52.7196 43.6791 50.8841 43.6791C44.3341 43.6835 37.78 43.6835 31.2301 43.6791C26.6759 43.6791 22.1217 43.7007 17.5675 43.6619C16.4808 43.6532 16.4808 41.9647 17.5674 41.9734ZM10.6365 52.216C9.78363 52.216 9.09527 51.5276 9.09527 50.6748C9.09527 49.8263 9.78363 49.1336 10.6365 49.1336C11.4849 49.1336 12.1733 49.8263 12.1733 50.6748C12.1733 51.5278 11.4851 52.216 10.6365 52.216ZM10.6365 44.3588C9.78363 44.3588 9.09527 43.6661 9.09527 42.8176C9.09527 41.9647 9.78363 41.2764 10.6365 41.2764C11.4849 41.2764 12.1733 41.9647 12.1733 42.8176C12.1733 43.6661 11.4851 44.3588 10.6365 44.3588ZM56.6372 51.532C54.7845 51.5407 52.9272 51.5363 51.0701 51.5363C44.477 51.5407 37.8881 51.5407 31.2949 51.5363C26.719 51.5363 22.1432 51.5623 17.5674 51.5191C16.4808 51.5104 16.4808 49.8221 17.5674 49.8308C19.4549 49.8481 21.3379 49.8437 23.2255 49.8437C29.8273 49.8524 36.4334 49.8524 43.0354 49.8524C47.5679 49.8524 52.1048 49.8611 56.6374 49.8437C57.7282 49.8394 57.724 51.5278 56.6372 51.532Z" fill="white"/>
<path d="M56.3904 43.6702C54.5549 43.6789 52.7194 43.6789 50.8839 43.6789C44.334 43.6833 37.7799 43.6833 31.2299 43.6789C26.6758 43.6789 22.1215 43.7005 17.5674 43.6617C16.4808 43.653 16.4808 41.9647 17.5674 41.9734C19.4332 41.9908 21.2991 41.9821 23.1649 41.9865C29.7279 41.9908 36.2907 41.9908 42.8535 41.9908C47.3645 41.9908 51.8796 42.0037 56.3906 41.9821C57.4814 41.9776 57.477 43.6659 56.3904 43.6702Z" fill="#F80000"/>
<path d="M56.637 51.532C54.7842 51.5407 52.927 51.5364 51.0699 51.5364C44.4768 51.5407 37.8879 51.5407 31.2946 51.5364C26.7187 51.5364 22.143 51.5623 17.5671 51.5191C16.4806 51.5104 16.4806 49.8221 17.5671 49.8308C19.4547 49.8481 21.3377 49.8437 23.2252 49.8437C29.827 49.8524 36.4332 49.8524 43.0352 49.8524C47.5677 49.8524 52.1046 49.8611 56.6371 49.8437C57.7279 49.8394 57.7237 51.5278 56.637 51.532Z" fill="#F80000"/>
<path d="M12.1732 42.8176C12.1732 43.666 11.4849 44.3587 10.6364 44.3587C9.78357 44.3587 9.09521 43.666 9.09521 42.8176C9.09521 41.9647 9.78357 41.2764 10.6364 41.2764C11.485 41.2764 12.1732 41.9647 12.1732 42.8176Z" fill="#F80000"/>
<path d="M12.1732 50.675C12.1732 51.5278 11.4849 52.2162 10.6364 52.2162C9.78357 52.2162 9.09521 51.5278 9.09521 50.675C9.09521 49.8265 9.78357 49.1338 10.6364 49.1338C11.485 49.1338 12.1732 49.8263 12.1732 50.675Z" fill="#F80000"/>
<path d="M178.133 76.3767C177.619 76.3767 177.16 76.1112 176.903 75.6669L174.328 71.2068H161.917C160.367 71.2068 159.106 69.9456 159.106 68.3952V49.0579C159.106 47.5076 160.367 46.2463 161.917 46.2463H194.348C195.898 46.2463 197.159 47.5076 197.159 49.0579V68.3952C197.159 69.9456 195.898 71.2068 194.348 71.2068H181.937L179.362 75.6669C179.105 76.1115 178.645 76.3767 178.133 76.3767ZM161.917 47.3286C160.964 47.3286 160.188 48.1043 160.188 49.0579V68.3952C160.188 69.3488 160.964 70.1246 161.917 70.1246H174.953L177.84 75.1258C177.928 75.278 178.074 75.2945 178.132 75.2945C178.191 75.2945 178.337 75.278 178.424 75.1258L181.312 70.1246H194.347C195.301 70.1246 196.077 69.3488 196.077 68.3952V49.0579C196.077 48.1043 195.301 47.3286 194.347 47.3286H161.917Z" fill="#F80000"/>
<path d="M186.852 64.8247H167.166C166.615 64.8247 165.856 63.5381 165.856 62.6042V54.0228C165.856 52.7984 166.853 51.8022 168.077 51.8022H187.763C188.988 51.8022 189.984 52.7984 189.984 54.0228V62.6042C189.984 63.1249 189.758 64.8247 186.852 64.8247ZM167.404 63.7425H186.852C187.618 63.7425 188.902 63.5945 188.902 62.6042V54.0228C188.902 53.3952 188.391 52.8845 187.763 52.8845H168.077C167.449 52.8845 166.939 53.3952 166.939 54.0228V62.6042C166.939 63.0918 167.235 63.5314 167.404 63.7425Z" fill="#F80000"/>
<path d="M166.812 53.4465C170.466 55.7273 174.124 57.9957 177.894 60.0822C178.443 60.386 178.935 59.5451 178.385 59.2412C174.615 57.1549 170.958 54.8863 167.304 52.6055C166.771 52.2725 166.281 53.115 166.812 53.4465Z" fill="#F80000"/>
<path d="M188.478 52.6055C185.013 54.9112 181.509 57.1767 177.894 59.2412C177.349 59.552 177.839 60.3939 178.385 60.0822C182 58.0177 185.504 55.7524 188.969 53.4465C189.489 53.1009 189.002 52.2568 188.478 52.6055Z" fill="#F80000"/>
</svg>
