<svg width="16" height="17" viewBox="0 0 16 17" fill="none" xmlns="http://www.w3.org/2000/svg">
<path d="M15.875 0.0713779C15.8027 0.00866801 15.7086 -0.0039419 15.6267 0.0380409L1.6551 6.85027L0 7.68011L5.0011 10.1264H5.00663V10.1297L6.3445 15.7721C6.37143 15.8857 6.44618 15.9736 6.54089 16.003C6.6356 16.0325 6.73616 15.9992 6.80516 15.9154L9.59122 12.4726L13.351 14.259C13.506 14.3355 13.6814 14.3217 13.8269 14.2215C13.9723 14.1213 14.0714 13.9459 14.0958 13.7458L15.9937 0.417962C16.0181 0.283821 15.9707 0.145489 15.875 0.0713779ZM7.77336 11.5795L7.77889 11.5562L7.78717 11.5595L7.77336 11.5795Z" fill="#077E50"/>
<path d="M9.59197 12.4727L6.80591 15.9155C6.83838 15.8728 6.86203 15.8214 6.87487 15.7655L7.77414 11.5795L7.78792 11.5595L8.9851 12.1661L9.52026 12.4394L9.59197 12.4727Z" fill="#005534"/>
<path d="M15.8952 0.0893555L7.78698 11.5595L7.7787 11.5562L7.77317 11.5795L6.8739 15.7655C6.86106 15.8213 6.83744 15.8727 6.80494 15.9154C6.73594 15.9992 6.63538 16.0325 6.54067 16.0031C6.44596 15.9736 6.37124 15.8857 6.34428 15.7721L5.00641 10.1297V10.1264H5.00366V10.123L15.8952 0.0893555Z" fill="#0A9861"/>
</svg>
