<svg width="211" height="53" viewBox="0 0 211 53" fill="none" xmlns="http://www.w3.org/2000/svg">
<g clip-path="url(#clip0_1_1418)">
<path d="M2.31385 44.9275L2.22534 44.9934L2.23293 44.8641C2.25063 44.8793 2.28098 44.9021 2.31385 44.9275Z" fill="#022E43"/>
<path d="M26.1888 38.4238C29.4889 38.0309 32.3465 34.5789 33.3454 31.5932C34.3747 28.5162 34.1117 25.2517 34.8147 22.2001C35.4115 19.6098 37.6268 17.8052 40.3301 18.7075C39.4501 17.7089 37.8772 17.4174 36.6127 17.6151C33.9448 18.0308 31.77 22.5398 29.9795 24.2987C28.2979 25.9487 27.036 23.8704 26.6946 22.2939C27.6176 22.9073 28.576 22.01 29.1501 21.3384C30.7104 19.516 31.7194 17.3059 33.8563 15.8612C38.1907 12.9338 42.3912 17.2324 42.7857 21.5082L42.4316 20.7985C40.5299 18.7582 37.9024 20.5071 37.3613 22.849C36.0488 28.5061 37.1665 35.0934 31.0847 38.6266C28.7252 39.9978 26.1686 39.9749 23.5588 39.4782C22.8381 41.848 21.4649 43.498 19.0018 44.1037C14.9506 45.0998 11.4582 43.3586 8.69418 40.4996L7.69275 39.2095L9.78158 40.7556C13.1551 42.8821 19.682 43.2192 21.1058 38.6494L19.3659 38.0943C19.9577 33.892 17.5047 30.3082 14.1666 28.0702C8.98499 24.6029 -0.806728 21.9112 1.76765 13.6663C1.96237 13.5218 2.3594 14.3025 2.4909 14.452C5.76829 18.1347 11.1826 18.9078 14.6193 22.4612C14.5055 22.6437 14.3715 22.4232 14.2829 22.3497C13.3473 21.5766 12.3888 20.872 11.3419 20.2587C8.22634 18.4287 4.50892 17.5138 2.04582 14.6776C2.05594 15.7725 2.97391 17.0449 3.66934 17.8661C8.73464 23.8603 20.6632 25.0034 20.6632 34.7842C20.6632 35.2556 20.1625 37.5874 20.3421 37.7268C20.6986 37.7547 21.2044 38.1957 21.4118 37.7851C21.5129 37.5874 21.6672 36.0945 21.6697 35.7929C21.6697 35.4077 21.5863 34.6397 21.5332 34.2393C21.2297 31.8593 20.0791 29.6466 18.9765 27.5607C21.1715 27.9003 22.9417 29.6948 24.5096 31.1446C24.6968 29.8013 24.0949 28.4377 23.4248 27.3022C19.849 21.2395 10.611 17.823 4.74664 14.2087C1.53752 12.2241 -1.25939 9.43614 0.591729 5.37579C0.670123 8.25504 3.36841 10.1965 5.60139 11.5576C13.499 16.3681 26.123 20.099 25.458 31.4208C25.4428 31.6819 25.3391 32.863 25.1798 32.934C24.454 31.6718 23.1188 30.7568 21.7709 30.2473C22.2109 31.1724 22.7243 32.0747 23.0505 33.0531C23.6195 34.7538 23.8951 36.6496 23.6701 38.4263C24.4692 38.3579 25.4048 38.5201 26.1837 38.4263L26.1888 38.4238Z" fill="#006838"/>
<path d="M26.2419 27.6672L25.7867 24.8209C23.5537 16.4898 12.4217 12.8578 5.79866 8.6707C2.81208 6.78499 -0.0177031 3.78155 1.76767 0L1.98515 1.1811C3.08014 3.78915 5.51796 5.34283 7.83945 6.73937C12.8972 9.7859 22.044 13.6359 24.9927 18.672C26.5909 21.4018 26.7477 24.6029 26.2419 27.6672Z" fill="#006838"/>
<path d="M28.2573 20.7225C26.6414 17.866 24.5778 15.2504 23.0251 12.3559C21.8694 10.2041 20.9666 8.03706 21.9959 5.60136C20.5494 7.03845 20.2409 8.39443 20.4179 10.3765C20.428 10.5032 20.5216 10.7794 20.3218 10.7541C19.6592 8.04213 21.0754 5.63684 23.1718 4.035C23.2502 4.32394 22.972 4.5926 22.9189 4.90182C22.5952 6.84075 24.8484 10.5184 25.8625 12.2039C27.1396 14.3278 28.5835 16.3555 29.9087 18.449C29.8429 18.8089 28.5734 20.943 28.2573 20.725V20.7225Z" fill="#006838"/>
<path d="M29.4839 26.2123C29.7671 26.2655 30.6041 27.8699 30.8242 27.6672C31.0821 26.5342 30.938 25.4393 30.5106 24.3773L31.9419 22.4029C32.1392 22.451 32.1771 22.6817 32.2251 22.8464C32.7385 24.6662 32.4072 27.1957 31.861 28.9877C31.6991 29.5174 31.2389 30.2676 31.1655 30.7542C31.0872 31.2713 31.2085 31.8923 31.158 32.427C30.9809 34.2823 29.5825 36.0945 27.9918 36.9842C27.6454 37.1768 26.6743 37.8003 26.5757 37.2452C26.4619 36.6065 26.6086 35.6104 26.4594 34.9109C28.49 34.219 30.5864 32.1736 30.2552 29.8621C30.1489 29.1296 29.4813 28.795 29.4813 27.837V26.2123H29.4839Z" fill="#006838"/>
<path d="M17.75 52.9848C15.7977 50.2551 17.1658 46.945 19.4241 44.9198C19.1332 45.5966 18.63 46.1542 18.4125 46.874C17.9093 48.5443 18.4125 49.8774 19.5151 51.1371C19.2319 51.3094 18.0206 53.1799 17.7474 52.9848H17.75Z" fill="#006838"/>
<path d="M17.9726 45.2569L16.741 46.2049C15.8863 47.1553 15.6561 48.5138 15.9621 49.733L13.6153 50.5187C13.3776 47.8827 15.6081 45.883 17.9726 45.2544V45.2569Z" fill="#006838"/>
<path d="M10.7072 47.7205C10.9069 47.3175 11.0941 46.9019 11.3798 46.547C12.4748 45.1936 14.3993 44.9224 16.0177 45.1404C16.1847 45.1632 16.3617 45.1556 16.4072 45.3659C14.9556 45.3761 13.3574 46.2125 13.0539 47.7205H10.7072Z" fill="#006838"/>
<path d="M27.6555 28.5745L28.6999 29.6289L27.8199 30.734L28.8087 31.7579L27.7516 32.825C27.524 32.825 26.7805 31.9556 26.8134 31.7731L27.6935 30.7492L26.6844 29.6289L27.653 28.5745H27.6555Z" fill="#006838"/>
<path d="M15.3451 41.1104C15.56 41.0825 16.3111 40.8418 16.5488 40.748C17.487 40.3855 18.1749 39.724 18.754 38.918L19.8717 39.207C19.457 39.8507 18.7135 40.4388 18.013 40.7606C17.6918 40.9077 16.4122 41.3335 16.1265 41.3335H13.7797C13.7114 41.3335 13.5268 41.1763 13.3903 41.2194V41.1079C14.0098 41.0521 14.7407 41.1839 15.3451 41.1079V41.1104Z" fill="#006838"/>
<path d="M26.467 40.6643L23.0024 42.4537L23.842 40.7759L23.8977 40.1017C24.669 40.7607 25.4807 40.895 26.467 40.6618V40.6643Z" fill="#006838"/>
<path d="M211 7.68983H209.725V22.152H211V7.68983Z" fill="#00A651"/>
<path d="M50.9792 10.1838C51.2144 10.1838 51.4142 10.0977 51.5761 9.92784C51.7404 9.75802 51.8214 9.55526 51.8214 9.31955C51.8214 9.05849 51.7404 8.84052 51.5761 8.6707C51.4117 8.50089 51.2144 8.41471 50.9792 8.41471C50.7314 8.41471 50.5215 8.50089 50.3521 8.6707C50.1827 8.84052 50.0967 9.05849 50.0967 9.31955C50.0967 9.55526 50.1827 9.75802 50.3521 9.92784C50.5215 10.0977 50.7314 10.1838 50.9792 10.1838Z" fill="#FFD700"/>
<path d="M47.6462 10.1838C47.8814 10.1838 48.0812 10.0977 48.2431 9.92784C48.4074 9.75802 48.4884 9.55526 48.4884 9.31955C48.4884 9.05849 48.4074 8.84052 48.2431 8.6707C48.0787 8.50089 47.8814 8.41471 47.6462 8.41471C47.3984 8.41471 47.1885 8.50089 47.0191 8.6707C46.8497 8.84052 46.7637 9.05849 46.7637 9.31955C46.7637 9.55526 46.8497 9.75802 47.0191 9.92784C47.1885 10.0977 47.3984 10.1838 47.6462 10.1838Z" fill="#FFD700"/>
<path d="M58.1966 7.69014V20.3046C58.1966 20.5657 58.0979 20.7887 57.9032 20.9839C57.7085 21.174 57.4733 21.2652 57.2129 21.2652H54.55C54.2516 21.2652 54.0037 21.174 53.8141 20.9839C53.6244 20.7887 53.5283 20.5454 53.5283 20.2463V12.3639H52.8253C52.7595 12.3639 52.709 12.3892 52.6685 12.4348C52.628 12.4804 52.6028 12.5337 52.5901 12.597C52.5775 12.6959 52.5572 12.7998 52.5319 12.9164C52.5067 13.033 52.4788 13.1445 52.4611 13.2484C52.4409 13.3523 52.4232 13.4385 52.403 13.5095C52.3827 13.588 52.3777 13.6261 52.3777 13.6387C51.9554 13.1698 51.485 12.8023 50.9641 12.5489C50.4431 12.2954 49.8387 12.1636 49.161 12.1636C48.4832 12.1636 47.8384 12.3081 47.3048 12.5869C46.7763 12.8682 46.3413 13.2459 45.9949 13.7148C45.6433 14.1837 45.3905 14.7337 45.221 15.347C45.0516 15.9604 44.9681 16.6067 44.9681 17.2733C44.9681 17.8334 45.0263 18.4088 45.1502 18.9841C45.2741 19.5594 45.4815 20.0866 45.7698 20.5581C46.0555 21.0269 46.4349 21.4122 46.8951 21.7062C47.3579 22.0002 47.9244 22.1498 48.5945 22.1498H51.6671C52.0059 22.1498 52.317 22.0661 52.5926 21.9014C52.8658 21.7392 53.0807 21.5237 53.2375 21.2627C53.4322 21.5617 53.68 21.7848 53.9734 21.9343C54.2667 22.0788 54.5474 22.1498 54.8079 22.1498H57.6352C57.8956 22.1498 58.1359 22.0965 58.3584 22.0002C58.581 21.9014 58.7757 21.7721 58.9375 21.6099C59.0994 21.4477 59.2309 21.25 59.3295 21.0219C59.4281 20.7862 59.4787 20.553 59.4787 20.3046V7.69014H58.2016H58.1966ZM52.2563 20.3046C52.2563 20.5657 52.1577 20.7887 51.9705 20.9839C51.7809 21.174 51.5482 21.2652 51.2726 21.2652H49.1762C48.5895 21.2652 48.109 21.1359 47.7372 20.8749C47.3604 20.6138 47.0721 20.2818 46.8648 19.8839C46.6498 19.4859 46.5057 19.0424 46.4273 18.5583C46.3489 18.0691 46.311 17.6129 46.311 17.182C46.311 16.6346 46.3641 16.1048 46.4677 15.6081C46.5714 15.1113 46.7485 14.6678 46.9811 14.2825C47.2163 13.8973 47.5273 13.5906 47.9193 13.3701C48.3088 13.147 48.7994 13.038 49.3709 13.038C49.9424 13.038 50.4709 13.1825 50.9792 13.4689C51.4875 13.7553 51.9098 14.1355 52.2563 14.612V20.3097V20.3046Z" fill="#00A651"/>
<path d="M195.63 15.4886V20.3043C195.63 20.5527 195.577 20.7884 195.48 21.0216C195.382 21.2497 195.253 21.4448 195.091 21.6096C194.929 21.7718 194.732 21.9036 194.504 21.9999C194.277 22.0988 194.029 22.1494 193.768 22.1494H191.846C191.573 22.1494 191.28 22.0785 190.982 21.934C190.683 21.7845 190.435 21.5614 190.238 21.2623C190.081 21.5234 189.866 21.7388 189.601 21.9011C189.333 22.0633 189.034 22.1494 188.708 22.1494H186.885C186.586 22.1494 186.273 22.0835 185.954 21.9543C185.636 21.8225 185.38 21.5893 185.198 21.2623C185.003 21.602 184.781 21.8377 184.533 21.9619C184.298 22.0785 184.02 22.1444 183.699 22.152H64.1141C63.8662 22.152 63.626 22.0988 63.3984 22.0024C63.1708 21.9036 62.9761 21.7743 62.8117 21.6121C62.6499 21.4499 62.5184 21.2522 62.4223 21.0241C62.3236 20.7884 62.2731 20.5552 62.2731 20.3068V7.68983H63.5501V20.3043C63.5501 20.5653 63.6488 20.7884 63.8435 20.9835C64.0382 21.1736 64.2658 21.2649 64.5263 21.2649H183.258C183.519 21.2649 183.747 21.1736 183.941 20.9835C184.136 20.7884 184.24 20.5653 184.24 20.3043V13.3875H185.509V20.2663C185.509 20.5527 185.608 20.7884 185.795 20.9835C185.985 21.1736 186.232 21.2649 186.531 21.2649H188.316C188.577 21.2649 188.804 21.1736 188.999 20.9835C189.194 20.7884 189.292 20.5653 189.292 20.3043V13.3875H190.549V20.2663C190.549 20.5527 190.648 20.7884 190.843 20.9835C191.037 21.1736 191.285 21.2649 191.591 21.2649H193.376C193.637 21.2649 193.865 21.1736 194.059 20.9835C194.254 20.7884 194.353 20.5653 194.353 20.3043V15.4886C194.365 14.6928 194.221 13.9426 193.923 13.2506C193.857 13.0935 193.806 12.9566 193.766 12.84C193.725 12.7234 193.766 12.6043 193.882 12.5004L194.449 11.9707C194.825 12.4269 195.119 12.949 195.321 13.5244C195.523 14.0997 195.627 14.7587 195.627 15.4886H195.63Z" fill="#00A651"/>
<path d="M205.649 20.3018C205.649 20.5628 205.55 20.7909 205.356 20.9785C205.158 21.1686 204.931 21.2623 204.67 21.2623H201.985C201.684 21.2623 201.439 21.1686 201.249 20.9785C201.059 20.7884 200.966 20.5425 200.966 20.2409V12.3433H199.691V23.11C199.691 23.7386 199.549 24.2024 199.269 24.504C198.988 24.8057 198.533 24.9552 197.906 24.9552C197.802 24.9552 197.708 24.9628 197.63 24.9755C197.552 24.9881 197.506 25.0743 197.494 25.2315L197.456 25.6446C197.587 25.6978 197.726 25.7333 197.878 25.7536C198.027 25.7738 198.181 25.784 198.338 25.784C199.2 25.784 199.845 25.5533 200.27 25.0971C200.695 24.6384 200.92 24.0174 200.945 23.2317C200.945 23.1531 200.948 23.0391 200.956 22.887C200.963 22.7375 200.966 22.5752 200.966 22.4054V21.5411C201.148 21.7642 201.36 21.9213 201.603 22.0126C201.846 22.1038 202.076 22.1494 202.298 22.1494H205.083C205.343 22.1494 205.586 22.1013 205.808 22.0024C206.031 21.9036 206.223 21.7743 206.387 21.6096C206.552 21.4448 206.681 21.2497 206.779 21.019C206.878 20.7909 206.926 20.5501 206.926 20.3018V7.68729H205.652V20.3018H205.649Z" fill="#00A651"/>
<path d="M53.5156 32.2572C53.5156 32.8022 53.4271 33.3015 53.2476 33.7552H53.6876C54.3451 33.7552 54.8231 33.9655 55.1164 34.3837V28.9775H45.2336V28.24H57.706C58.1611 28.24 58.4899 28.4377 58.6947 28.828C58.6315 28.3464 58.6012 27.9181 58.6012 27.543V27.102H59.4155V28.24H61.0187V28.9775H59.4155V36.7256H58.6012V30.1282C58.6012 29.3602 58.3028 28.9775 57.706 28.9775H55.9307V36.7256H55.1164V36.457C55.1164 35.8588 55.0127 35.3823 54.8104 35.025C54.6056 34.6701 54.2364 34.4902 53.7028 34.4902H52.8354C52.2487 35.3012 51.3611 35.7093 50.1776 35.7093C48.994 35.7093 48.1545 35.3443 47.5526 34.6118C46.9507 33.8793 46.6523 32.9618 46.6523 31.8542C46.6523 31.3017 46.6877 30.8024 46.7585 30.3538H47.5602C47.497 30.8708 47.4666 31.3701 47.4666 31.8542C47.4666 32.8174 47.7043 33.5777 48.1798 34.1353C48.6552 34.6929 49.3228 34.9717 50.1776 34.9717C50.9691 34.9717 51.5887 34.7259 52.0337 34.2367C52.4788 33.745 52.7013 33.086 52.7013 32.2547C52.7013 31.763 52.6002 31.3625 52.4004 31.0508C52.2006 30.739 51.8946 30.5819 51.485 30.5819C51.1385 30.5819 50.8679 30.7086 50.6757 30.9646C50.4835 31.2181 50.3874 31.5425 50.3874 31.9353C50.3874 32.2572 50.4279 32.5994 50.5088 32.9644H49.7476C49.6313 32.6349 49.5732 32.2775 49.5732 31.8948C49.5732 31.3321 49.7426 30.8506 50.0815 30.4501C50.4203 30.0496 50.8882 29.8469 51.485 29.8469C52.1172 29.8469 52.6128 30.0775 52.9745 30.5439C53.3361 31.0077 53.5156 31.578 53.5156 32.2572Z" fill="#006838"/>
<path d="M68.9391 36.7282H68.1248V32.5791C68.1248 32.2319 68.0388 31.9049 67.8643 31.6008C67.6898 31.2992 67.399 31.1471 66.9894 31.1471C66.17 31.1471 65.7603 31.7402 65.7603 32.9264V33.1393H64.946V32.9111C64.946 31.7605 64.501 31.1851 63.6108 31.1851C63.2011 31.1851 62.8724 31.3245 62.622 31.5982C62.3717 31.8745 62.2478 32.2598 62.2478 32.7489C62.2478 33.2761 62.3995 33.6867 62.7029 33.9807C63.0064 34.2747 63.3984 34.4217 63.8789 34.4217C64.1899 34.4217 64.5364 34.3863 64.9208 34.3153V35.0376C64.5996 35.1187 64.2354 35.1593 63.8258 35.1593C63.1126 35.1593 62.536 34.9464 62.096 34.5231C61.656 34.0999 61.436 33.5093 61.436 32.7489C61.436 32.1052 61.6282 31.5628 62.01 31.1167C62.3919 30.6706 62.9103 30.4476 63.5602 30.4476C64.0306 30.4476 64.4226 30.5642 64.7361 30.7948C65.0472 31.028 65.247 31.3473 65.338 31.7579C65.4366 31.3397 65.6263 31.0077 65.9045 30.7669C66.1826 30.5261 66.5266 30.4045 66.9261 30.4045C67.4774 30.4045 67.8795 30.6275 68.1273 31.0736V28.9725H60.4877V28.2349H70.5424V28.9725H68.9391V36.7206V36.7282Z" fill="#006838"/>
<path d="M76.8848 36.822C76.8216 36.8321 76.7103 36.8346 76.551 36.8346C75.724 36.8346 75.1196 36.5077 74.7428 35.8512C74.3635 35.1948 74.1663 34.3229 74.1486 33.233C74.1486 32.6526 74.1941 32.0925 74.2877 31.5526C74.3812 31.0128 74.5329 30.483 74.7428 29.9609C74.9527 29.4388 75.2587 29.0231 75.6633 28.7089C76.068 28.3971 76.5459 28.24 77.0997 28.24H77.2338V28.9775H77.0997C76.7078 28.9775 76.3664 29.1043 76.0781 29.3577C75.7898 29.6112 75.5647 29.9508 75.4105 30.3741C75.2537 30.7973 75.1399 31.2485 75.0691 31.725C74.9983 32.2015 74.9629 32.7058 74.9629 33.2305C74.9629 35.139 75.5243 36.0945 76.6445 36.0945H76.8848V36.8169V36.822Z" fill="#006838"/>
<path d="M84.1906 28.9775H82.5873V36.7256H81.773L77.5676 33.4206V32.4296C78.1366 31.8847 78.8042 31.3879 79.5704 30.9367C80.3366 30.4856 81.07 30.1713 81.773 29.9939V28.9775H76.6976V28.24H84.1906V28.9775ZM78.6625 35.8386C78.7865 35.9602 78.8497 36.1097 78.8497 36.2872C78.8497 36.4646 78.7865 36.6141 78.6625 36.7282C78.5386 36.8422 78.3869 36.9031 78.2074 36.9031C78.0278 36.9031 77.8811 36.8448 77.7673 36.7282C77.651 36.6116 77.5928 36.4646 77.5928 36.2872C77.5928 36.1097 77.651 35.9602 77.7673 35.8386C77.8837 35.7169 78.0303 35.6586 78.2074 35.6586C78.3844 35.6586 78.5361 35.7194 78.6625 35.8386ZM81.773 35.7245V30.772C81.2217 30.9317 80.63 31.2054 80.0028 31.5881C79.3757 31.9708 78.7941 32.4144 78.2605 32.9137L81.773 35.7245Z" fill="#006838"/>
<path d="M90.1992 36.7282H89.3849V33.6893C89.3849 33.3598 89.3014 33.081 89.137 32.8528C88.9727 32.6247 88.7375 32.5107 88.434 32.5107C88.214 32.5107 88.0041 32.5867 87.8069 32.7388C87.6096 32.8909 87.4377 33.0759 87.2859 33.2939C87.1342 33.5118 86.9749 33.7323 86.8054 33.9554C86.636 34.1784 86.4261 34.366 86.1783 34.5181C85.9305 34.6701 85.6523 34.7462 85.3514 34.7462C85.0757 34.7462 84.7824 34.6803 84.4713 34.5459V33.8084C84.8001 33.9072 85.058 33.9554 85.2451 33.9554C85.493 33.9554 85.713 33.8793 85.9001 33.7273C86.0872 33.5752 86.2946 33.337 86.5222 33.01C86.7498 32.6856 86.9167 32.4625 87.0229 32.3485C86.942 31.5349 86.6841 30.881 86.2491 30.3867C85.8116 29.8925 85.2375 29.6441 84.5269 29.6441V28.975H83.6595V28.2374H91.805V28.975H90.2042V36.7231L90.1992 36.7282ZM88.3278 31.7351C88.8083 31.7351 89.1598 31.9176 89.3849 32.2826V28.9775H85.4171C86.0594 29.1651 86.5753 29.525 86.9723 30.0547C87.3694 30.5844 87.6197 31.18 87.7259 31.8416C87.9131 31.7706 88.1129 31.7351 88.3278 31.7351Z" fill="#006838"/>
<path d="M95.2872 28.9775H93.6839V36.7256H92.8696V30.1282C92.8696 29.3602 92.5713 28.9775 91.9744 28.9775H91.2664V28.24H91.9744C92.4271 28.24 92.7584 28.4377 92.9632 28.828C92.9 28.3464 92.8696 27.9181 92.8696 27.543V27.102H93.6839V28.24H95.2872V28.9775Z" fill="#006838"/>
<path d="M103.205 36.7282H102.391V32.5791C102.391 32.2319 102.305 31.9049 102.13 31.6008C101.956 31.2992 101.665 31.1471 101.255 31.1471C100.436 31.1471 100.026 31.7402 100.026 32.9264V33.1393H99.212V32.9111C99.212 31.7605 98.767 31.1851 97.8768 31.1851C97.4671 31.1851 97.1384 31.3245 96.8905 31.5982C96.6402 31.8745 96.5163 32.2598 96.5163 32.7489C96.5163 33.2761 96.668 33.6867 96.9715 33.9807C97.2749 34.2747 97.6669 34.4217 98.1474 34.4217C98.4584 34.4217 98.8074 34.3863 99.1893 34.3153V35.0376C98.8681 35.1187 98.504 35.1593 98.0943 35.1593C97.3811 35.1593 96.8046 34.9464 96.3645 34.5231C95.9245 34.0999 95.7045 33.5093 95.7045 32.7489C95.7045 32.1052 95.8967 31.5628 96.2786 31.1167C96.6604 30.6706 97.1763 30.4476 97.8262 30.4476C98.2991 30.4476 98.6911 30.5642 99.0021 30.7948C99.3132 31.0254 99.513 31.3473 99.604 31.7579C99.7026 31.3397 99.8923 31.0077 100.17 30.7669C100.449 30.5261 100.793 30.4045 101.192 30.4045C101.743 30.4045 102.146 30.6275 102.393 31.0736V28.9725H94.7537V28.2349H104.811V28.9725H103.208V36.7206L103.205 36.7282Z" fill="#006838"/>
<path d="M108.293 28.9775H106.69V36.7256H105.876V30.1282C105.876 29.3602 105.577 28.9775 104.98 28.9775H104.272V28.24H104.98C105.433 28.24 105.764 28.4377 105.969 28.828C105.906 28.3464 105.876 27.9181 105.876 27.543V27.102H106.69V28.24H108.293V28.9775Z" fill="#006838"/>
<path d="M114.329 28.9775H107.76V28.24H114.329V28.9775ZM113.116 36.86H111.94L109.163 34.8399V34.0897H110.271C111.606 34.0441 112.274 33.4105 112.274 32.1888C112.274 31.7174 112.152 31.3524 111.912 31.0989C111.672 30.8455 111.348 30.7188 110.938 30.7188C110.554 30.7188 110.253 30.8379 110.03 31.0736C109.808 31.3093 109.697 31.6236 109.697 32.0164C109.697 32.2927 109.745 32.6197 109.843 32.9923H109.057C108.94 32.6704 108.882 32.3459 108.882 32.0164C108.882 31.4284 109.067 30.9418 109.436 30.5565C109.805 30.1738 110.306 29.9812 110.938 29.9812C111.571 29.9812 112.097 30.1916 112.494 30.6098C112.888 31.0305 113.088 31.5552 113.088 32.1888C113.088 32.939 112.848 33.56 112.367 34.0492C111.887 34.5409 111.214 34.7867 110.352 34.7867L113.116 36.7814V36.8625V36.86Z" fill="#006838"/>
<path d="M119.003 31.213C119.003 30.3817 119.291 29.6568 119.87 29.0383C120.449 28.4199 121.147 28.1082 121.967 28.1082C123.221 28.1082 123.851 28.8229 123.851 30.2499V36.7282H123.036V36.5812C123.036 36.1528 122.857 35.9374 122.503 35.9374C122.369 35.9374 121.997 36.0261 121.388 36.2061C120.778 36.386 120.265 36.4747 119.845 36.4747C119.185 36.4747 118.669 36.2745 118.295 35.8715C117.921 35.471 117.733 34.9134 117.733 34.1987C117.733 33.9579 117.746 33.7475 117.774 33.5701H118.563C118.545 33.8185 118.535 34.0289 118.535 34.1987C118.535 34.6803 118.649 35.0579 118.876 35.3291C119.104 35.6003 119.425 35.7372 119.845 35.7372C120.148 35.7372 120.594 35.651 121.18 35.4761C121.767 35.3012 122.187 35.2151 122.435 35.2151C122.682 35.2151 122.885 35.3012 123.036 35.4685V30.2499C123.036 29.7683 122.95 29.4135 122.784 29.1854C122.614 28.9572 122.343 28.8432 121.969 28.8432C121.426 28.8432 120.932 29.0789 120.487 29.5453C120.042 30.0142 119.82 30.5692 119.82 31.213C119.82 31.6844 119.941 32.0114 120.179 32.1888C120.419 32.3687 120.776 32.4575 121.249 32.4575C121.489 32.4575 121.711 32.4473 121.916 32.4296V33.1393C121.64 33.1747 121.39 33.1925 121.168 33.1925C120.49 33.1925 119.961 33.0277 119.579 32.6982C119.198 32.3687 119.005 31.872 119.005 31.213H119.003Z" fill="#006838"/>
<path d="M131.331 36.7282H130.517V33.6893C130.517 33.3598 130.433 33.081 130.269 32.8528C130.105 32.6247 129.869 32.5107 129.568 32.5107C129.346 32.5107 129.136 32.5867 128.941 32.7388C128.744 32.8909 128.572 33.0759 128.42 33.2939C128.269 33.5118 128.109 33.7323 127.94 33.9554C127.77 34.1784 127.56 34.366 127.313 34.5181C127.062 34.6701 126.787 34.7462 126.486 34.7462C126.21 34.7462 125.917 34.6803 125.603 34.5459V33.8084C125.932 33.9072 126.19 33.9554 126.377 33.9554C126.627 33.9554 126.845 33.8793 127.032 33.7273C127.219 33.5752 127.426 33.337 127.654 33.01C127.882 32.6856 128.049 32.4625 128.155 32.3485C128.074 31.5349 127.816 30.881 127.381 30.3867C126.946 29.8925 126.369 29.6441 125.659 29.6441V28.975H124.791V28.2374H132.937V28.975H131.336V36.7231L131.331 36.7282ZM129.46 31.7351C129.94 31.7351 130.292 31.9176 130.514 32.2826V28.9775H126.546C127.189 29.1651 127.707 29.525 128.102 30.0547C128.499 30.5844 128.749 31.18 128.858 31.8416C129.045 31.7706 129.245 31.7351 129.46 31.7351Z" fill="#006838"/>
<path d="M137.605 31.213C137.605 30.3817 137.893 29.6568 138.472 29.0383C139.052 28.4199 139.75 28.1082 140.569 28.1082C141.823 28.1082 142.453 28.8229 142.453 30.2499V36.7282H141.639V36.5812C141.639 36.1528 141.459 35.9374 141.105 35.9374C140.971 35.9374 140.599 36.0261 139.99 36.2061C139.38 36.386 138.867 36.4747 138.447 36.4747C137.787 36.4747 137.271 36.2745 136.897 35.8715C136.523 35.471 136.336 34.9134 136.336 34.1987C136.336 33.9579 136.348 33.7475 136.376 33.5701H137.165C137.147 33.8185 137.137 34.0289 137.137 34.1987C137.137 34.6803 137.251 35.0579 137.479 35.3291C137.706 35.6003 138.027 35.7372 138.447 35.7372C138.751 35.7372 139.196 35.651 139.782 35.4761C140.369 35.3012 140.789 35.2151 141.037 35.2151C141.285 35.2151 141.487 35.3012 141.639 35.4685V30.2499C141.639 29.7683 141.553 29.4135 141.386 29.1854C141.216 28.9572 140.946 28.8432 140.571 28.8432C140.028 28.8432 139.535 29.0789 139.089 29.5453C138.644 30.0142 138.422 30.5692 138.422 31.213C138.422 31.6844 138.543 32.0114 138.781 32.1888C139.021 32.3687 139.378 32.4575 139.851 32.4575C140.091 32.4575 140.313 32.4473 140.518 32.4296V33.1393C140.243 33.1747 139.992 33.1925 139.77 33.1925C139.092 33.1925 138.563 33.0277 138.182 32.6982C137.8 32.3687 137.608 31.872 137.608 31.213H137.605Z" fill="#006838"/>
<path d="M151.8 28.9775H150.196V36.7256H149.382V35.3469C149.382 34.5358 149.182 33.9072 148.78 33.4586C148.381 33.0125 147.809 32.7895 147.071 32.7895C146.545 32.7895 146.122 32.9314 145.801 33.2102C145.48 33.4916 145.321 33.8869 145.321 34.3939C145.321 34.9008 145.475 35.3063 145.781 35.5775C146.087 35.8487 146.486 35.9856 146.977 35.9856C147.21 35.9856 147.48 35.9627 147.791 35.9197V36.642C147.506 36.6952 147.227 36.7231 146.949 36.7231C146.228 36.7231 145.639 36.5229 145.179 36.1199C144.719 35.7169 144.491 35.1416 144.491 34.3939C144.491 33.8134 144.663 33.3217 145.005 32.9137C145.346 32.5082 145.804 32.242 146.373 32.1178C146.309 30.4678 145.616 29.6416 144.289 29.6416V28.9725H143.381V28.2349H151.794V28.9725L151.8 28.9775ZM149.384 33.233V28.9775H145.164C145.617 29.1017 145.998 29.3273 146.304 29.6542C146.613 29.9787 146.83 30.3411 146.959 30.739C147.088 31.1344 147.162 31.5754 147.179 32.057C148.211 32.1026 148.947 32.4929 149.384 33.2356V33.233Z" fill="#006838"/>
<path d="M156.475 31.213C156.475 30.3817 156.764 29.6568 157.343 29.0383C157.922 28.4199 158.62 28.1082 159.439 28.1082C160.694 28.1082 161.323 28.8229 161.323 30.2499V36.7282H160.509V36.5812C160.509 36.1528 160.329 35.9374 159.975 35.9374C159.841 35.9374 159.47 36.0261 158.86 36.2061C158.251 36.386 157.737 36.4747 157.318 36.4747C156.658 36.4747 156.142 36.2745 155.767 35.8715C155.393 35.471 155.206 34.9134 155.206 34.1987C155.206 33.9579 155.219 33.7475 155.246 33.5701H156.035C156.018 33.8185 156.008 34.0289 156.008 34.1987C156.008 34.6803 156.121 35.0579 156.349 35.3291C156.577 35.6003 156.898 35.7372 157.318 35.7372C157.621 35.7372 158.066 35.651 158.653 35.4761C159.239 35.3012 159.659 35.2151 159.907 35.2151C160.155 35.2151 160.357 35.3012 160.509 35.4685V30.2499C160.509 29.7683 160.423 29.4135 160.256 29.1854C160.087 28.9572 159.816 28.8432 159.442 28.8432C158.898 28.8432 158.405 29.0789 157.96 29.5453C157.515 30.0142 157.292 30.5692 157.292 31.213C157.292 31.6844 157.414 32.0114 157.651 32.1888C157.892 32.3687 158.248 32.4575 158.721 32.4575C158.961 32.4575 159.184 32.4473 159.389 32.4296V33.1393C159.113 33.1747 158.863 33.1925 158.64 33.1925C157.962 33.1925 157.434 33.0277 157.052 32.6982C156.67 32.3687 156.478 31.872 156.478 31.213H156.475Z" fill="#006838"/>
<path d="M168.801 36.7282H167.987V33.6893C167.987 33.3598 167.903 33.081 167.739 32.8528C167.575 32.6247 167.339 32.5107 167.038 32.5107C166.816 32.5107 166.606 32.5867 166.411 32.7388C166.214 32.8909 166.042 33.0759 165.89 33.2939C165.739 33.5118 165.579 33.7323 165.41 33.9554C165.24 34.1784 165.031 34.366 164.783 34.5181C164.532 34.6701 164.257 34.7462 163.956 34.7462C163.68 34.7462 163.387 34.6803 163.073 34.5459V33.8084C163.402 33.9072 163.66 33.9554 163.847 33.9554C164.097 33.9554 164.315 33.8793 164.502 33.7273C164.689 33.5752 164.897 33.337 165.124 33.01C165.352 32.6856 165.519 32.4625 165.625 32.3485C165.544 31.5349 165.286 30.881 164.851 30.3867C164.416 29.8925 163.839 29.6441 163.129 29.6441V28.975H162.261V28.2374H170.407V28.975H168.806V36.7231L168.801 36.7282ZM166.932 31.7351C167.413 31.7351 167.764 31.9176 167.987 32.2826V28.9775H164.019C164.661 29.1651 165.18 29.525 165.574 30.0547C165.971 30.5844 166.222 31.18 166.33 31.8416C166.518 31.7706 166.717 31.7351 166.932 31.7351Z" fill="#006838"/>
<path d="M176.747 36.822C176.683 36.8321 176.572 36.8346 176.413 36.8346C175.583 36.8346 174.982 36.5077 174.605 35.8512C174.225 35.1948 174.028 34.3229 174.01 33.233C174.01 32.6526 174.059 32.0925 174.15 31.5526C174.243 31.0128 174.395 30.483 174.605 29.9609C174.815 29.4388 175.121 29.0231 175.525 28.7089C175.93 28.3946 176.408 28.24 176.962 28.24H177.096V28.9775H176.962C176.57 28.9775 176.228 29.1043 175.94 29.3577C175.649 29.6112 175.429 29.9508 175.272 30.3741C175.116 30.7973 175.002 31.2485 174.931 31.725C174.86 32.2015 174.825 32.7058 174.825 33.2305C174.825 35.139 175.386 36.0945 176.506 36.0945H176.747V36.8169V36.822Z" fill="#006838"/>
<path d="M182.97 36.7282H182.156V31.0939C182.156 30.4248 181.992 29.8824 181.663 29.4667C181.334 29.0536 180.849 28.8432 180.209 28.8432C179.612 28.8432 179.152 29.013 178.825 29.3526C178.499 29.6923 178.33 30.1384 178.312 30.6909H178.552C179.228 30.6909 179.769 30.8658 180.173 31.2181C180.578 31.5704 180.78 32.0367 180.78 32.6171C180.78 33.1976 180.575 33.6893 180.166 34.0441C179.756 34.3989 179.212 34.5713 178.537 34.5713C178.198 34.5713 177.842 34.5358 177.47 34.4648V33.783C177.746 33.8185 178.102 33.8363 178.537 33.8363C179.491 33.8363 179.966 33.4307 179.966 32.6171C179.966 32.2344 179.842 31.9379 179.599 31.7351C179.354 31.5298 179 31.4259 178.537 31.4259H177.495V30.7695C177.495 30.0649 177.723 29.4439 178.176 28.9091C178.628 28.3743 179.258 28.1056 180.06 28.1056C181.056 28.1056 181.754 28.4402 182.156 29.1093V27.102H182.97V28.24H184.574V28.9775H182.97V36.7256V36.7282Z" fill="#006838"/>
<path d="M190.62 33.1012C190.62 34.039 190.344 34.8551 189.793 35.5496C189.242 36.2466 188.501 36.5939 187.575 36.5939C186.996 36.5939 186.528 36.4164 186.174 36.0641C185.818 35.7118 185.641 35.2227 185.641 34.5992V28.9775H184.037V28.24H189.753C189.806 28.0245 189.833 27.7761 189.833 27.4897C189.833 26.8662 189.54 26.552 188.953 26.552C188.703 26.552 188.354 26.6077 187.904 26.7192C187.454 26.8308 187.062 26.8865 186.723 26.8865C186.154 26.8865 185.704 26.7978 185.373 26.6204V25.9513C185.79 26.0856 186.237 26.1515 186.708 26.1515C186.976 26.1515 187.35 26.0957 187.828 25.9842C188.309 25.8727 188.678 25.8169 188.936 25.8169C189.515 25.8169 189.937 25.9715 190.205 26.2782C190.471 26.5849 190.605 26.9676 190.605 27.4213C190.605 27.7153 190.574 27.9865 190.511 28.2374H191.74V28.975H186.452V34.5966C186.452 35.0072 186.554 35.319 186.753 35.5344C186.953 35.7498 187.226 35.8563 187.575 35.8563C188.225 35.8563 188.759 35.5851 189.179 35.0402C189.596 34.4952 189.806 33.8489 189.806 33.0987C189.806 32.0823 189.242 31.5729 188.111 31.5729C187.924 31.5729 187.747 31.5856 187.578 31.6135V30.8759C187.783 30.848 187.987 30.8354 188.192 30.8354C188.959 30.8354 189.555 31.0406 189.983 31.4512C190.41 31.8618 190.625 32.4118 190.625 33.0987L190.62 33.1012Z" fill="#006838"/>
<path d="M198.753 34.1176C198.753 34.7867 198.51 35.3418 198.024 35.7828C197.539 36.2238 196.869 36.4443 196.014 36.4443C194.894 36.4443 194.011 36.0464 193.371 35.2531C192.729 34.4572 192.41 33.4282 192.41 32.1609C192.41 31.9201 192.433 31.6439 192.476 31.3321H193.265C193.237 31.6084 193.225 31.8796 193.225 32.1482C193.225 33.3091 193.478 34.1936 193.986 34.8045C194.494 35.4153 195.169 35.722 196.017 35.722C196.596 35.722 197.056 35.575 197.4 35.281C197.744 34.9869 197.918 34.584 197.928 34.077C197.938 33.5676 197.759 33.1976 197.395 32.9669C197.031 32.7363 196.535 32.6197 195.913 32.6197H195.554V31.8847H195.953C196.522 31.8847 196.94 31.7224 197.203 31.3955C197.466 31.0711 197.597 30.6706 197.597 30.1966C197.597 29.786 197.483 29.4591 197.256 29.2132C197.028 28.9674 196.707 28.8457 196.287 28.8457C195.867 28.8457 195.561 28.9674 195.339 29.2082C195.116 29.449 195.005 29.7708 195.005 30.1713C195.005 30.4121 195.033 30.6833 195.086 30.9874H194.297C194.226 30.7213 194.191 30.4425 194.191 30.1586C194.191 29.5782 194.373 29.0941 194.737 28.6987C195.101 28.3059 195.617 28.1107 196.285 28.1107C196.952 28.1107 197.473 28.3135 197.847 28.719C198.222 29.1245 198.409 29.6188 198.409 30.1992C198.409 30.6883 198.29 31.1218 198.055 31.4969C197.817 31.872 197.509 32.1204 197.127 32.2471C197.554 32.2826 197.933 32.46 198.262 32.7768C198.591 33.0936 198.755 33.5423 198.755 34.1227L198.753 34.1176Z" fill="#006838"/>
<path d="M203.161 36.822C203.097 36.8321 202.986 36.8346 202.827 36.8346C201.997 36.8346 201.395 36.5077 201.019 35.8512C200.639 35.1948 200.442 34.3229 200.424 33.233C200.424 31.1623 200.869 29.7455 201.76 28.9775H199.223V28.24H203.51V28.9775H203.376C202.984 28.9775 202.642 29.1043 202.354 29.3577C202.063 29.6112 201.843 29.9508 201.686 30.3741C201.529 30.7973 201.416 31.2485 201.345 31.725C201.274 32.2015 201.239 32.7058 201.239 33.2305C201.239 35.139 201.8 36.0945 202.92 36.0945H203.161V36.8169V36.822Z" fill="#006838"/>
<path d="M211 28.9775H209.397V36.7256H208.583L204.109 34.3432V33.3522L206.62 31.4512L204.109 29.5782V28.975H202.974V28.2374H211V28.975V28.9775ZM207.288 30.9595V31.8973L204.883 33.7982L208.583 35.8335V28.9801H204.696L207.288 30.9595ZM205.791 36.6395C205.915 36.7611 205.978 36.9107 205.978 37.0881C205.978 37.2655 205.915 37.4125 205.791 37.5291C205.667 37.6457 205.515 37.704 205.338 37.704C205.161 37.704 205.012 37.6457 204.898 37.5291C204.782 37.4125 204.723 37.2655 204.723 37.0881C204.723 36.9107 204.782 36.7586 204.898 36.6395C205.014 36.5203 205.161 36.4595 205.338 36.4595C205.515 36.4595 205.667 36.5203 205.791 36.6395Z" fill="#006838"/>
</g>
<defs>
<clipPath id="clip0_1_1418">
<rect width="211" height="53" fill="white"/>
</clipPath>
</defs>
</svg>
