<svg width="20" height="21" viewBox="0 0 20 21" fill="none" xmlns="http://www.w3.org/2000/svg">
<g clip-path="url(#clip0_1_528)">
<path fill-rule="evenodd" clip-rule="evenodd" d="M19.0672 0.540635C18.7807 0.540635 18.2535 0.595388 17.4841 0.70281C16.7148 0.810688 16.2175 0.915044 15.9932 1.01388C15.7681 1.11264 15.3617 1.45548 14.7746 2.03843C14.1869 2.62346 13.3346 3.70315 12.2201 5.27677C11.1038 6.8521 10.0629 8.51494 9.09505 10.2668C8.12682 12.0193 7.22322 13.8386 6.38472 15.7246C5.60886 14.3964 4.90776 13.4958 4.27788 13.0221C3.64969 12.5466 3.11968 12.3094 2.68881 12.3094C2.35229 12.3094 1.93068 12.4888 1.42214 12.8461C0.91419 13.2043 0.660156 13.555 0.660156 13.9009C0.660156 14.1512 0.893223 14.5222 1.35937 15.0127C2.28263 15.9881 3.09988 17.0226 3.80704 18.1176C4.23901 18.7725 4.52631 19.1743 4.66955 19.3209C4.81193 19.4659 5.24591 19.5406 5.9717 19.5406C6.98127 19.5406 7.58095 19.4111 7.7717 19.1506C7.9607 18.8999 8.3105 18.1525 8.82067 16.9065C10.0812 13.787 11.6485 10.8078 13.522 7.97145C15.397 5.13628 17.1144 2.99128 18.6779 1.53828C18.9893 1.26224 19.1764 1.08333 19.2422 1.00071C19.3063 0.917831 19.3391 0.834367 19.3391 0.747459C19.3389 0.610348 19.2481 0.540635 19.0672 0.540635Z" fill="#81CB2D"/>
</g>
<defs>
<clipPath id="clip0_1_528">
<rect width="20" height="20" fill="white" transform="translate(0 0.0405579)"/>
</clipPath>
</defs>
</svg>
