<svg width="77" height="13" viewBox="0 0 77 13" fill="none" xmlns="http://www.w3.org/2000/svg">
<g clip-path="url(#clip0_1_792)">
<mask id="mask0_1_792" style="mask-type:luminance" maskUnits="userSpaceOnUse" x="-36" y="0" width="113" height="13">
<path d="M76.52 0.399902H-35.48V12.3999H76.52V0.399902Z" fill="white"/>
</mask>
<g mask="url(#mask0_1_792)">
<path d="M-35.3524 0.733332C-35.0882 0.273365 -34.4754 0.395935 -34.0682 0.583085C-31.1144 1.80878 -28.1715 3.06611 -25.2327 4.32476C-24.4837 4.533 -24.8242 5.40944 -24.8242 5.95639C-26.4447 5.97353 -28.0667 5.9564 -29.6886 5.96958C-30.1366 5.95112 -30.6691 6.04602 -31.0068 5.68358C-32.3401 4.45788 -33.627 3.17946 -34.9302 1.92872C-35.2366 1.62295 -35.686 1.17221 -35.3469 0.733332H-35.3524ZM-16.0459 1.23152C-15.3323 0.95343 -14.65 0.572541 -13.8929 0.413068C-13.419 0.315539 -13.212 0.79264 -12.9805 1.08654C-13.9828 2.5218 -15.4236 3.59066 -16.6437 4.84799C-17.1735 5.30269 -17.6392 6.05656 -18.4482 5.96826C-20.1981 5.96826 -21.948 5.95771 -23.7007 5.96826C-23.8124 5.46084 -24.0902 4.65953 -23.4419 4.38671C-20.9907 3.31653 -18.5135 2.27798 -16.0459 1.23547V1.23152ZM-1.54928 1.44635C-1.41318 1.12477 -1.03588 1.24602 -0.76218 1.21307C1.64282 1.22757 4.04642 1.21307 6.45542 1.22229C7.95342 1.24602 9.32612 2.40845 9.51812 3.84898C9.81092 5.50829 8.40152 7.22954 6.65832 7.30467C4.60472 7.34684 2.54842 7.27699 0.49612 7.33103C0.0957222 8.38539 0.55872 9.62559 0.261921 10.73C-0.273277 11.1254 -0.884781 11.5274 -1.58478 11.5564C-1.58478 9.72839 -1.56568 7.89907 -1.57518 6.07106C-1.59968 5.81933 -1.53848 5.39495 -1.16668 5.46348C1.31592 5.43185 3.80122 5.47798 6.28382 5.44898C6.89392 5.48193 7.54902 5.03646 7.56942 4.4157C7.70562 3.69214 7.02472 3.05294 6.29472 3.07798C3.70732 3.03185 1.11982 3.12147 -1.45398 3.03976C-1.65278 2.5363 -1.59018 1.97353 -1.54388 1.44635H-1.54928ZM20.5897 11.5471C20.5775 8.10466 20.5366 4.65953 20.6115 1.21834C24.3252 1.23152 28.043 1.19066 31.7566 1.23811C31.5565 1.87995 31.3032 2.61537 30.7435 3.02789C28.0048 3.12542 25.2512 3.04503 22.5072 3.0648C22.4922 3.85557 22.4936 4.66216 22.4976 5.46216C25.1777 5.45425 27.8587 5.45425 30.5405 5.46216C30.5787 6.07501 30.58 6.69182 30.5596 7.3073C27.8714 7.33366 25.1859 7.3073 22.4976 7.32048C22.4976 8.11126 22.4976 8.90203 22.4976 9.6928C25.0851 9.68358 27.663 9.6928 30.245 9.6928C31.1983 9.63745 31.359 10.7919 31.8207 11.3745C31.5745 11.5176 31.2904 11.5877 31.0036 11.5761C27.5323 11.5616 24.0583 11.5946 20.5884 11.559L20.5897 11.5471ZM42.7738 1.29478C43.0461 1.02065 43.3076 1.41867 43.5514 1.5241C46.4452 3.68292 49.3554 5.81801 52.2425 7.9821C52.2847 6.0592 52.188 4.13234 52.2847 2.21471C52.7178 1.67172 53.4273 1.40944 54.0728 1.16958C54.2185 1.56496 54.1885 1.98934 54.1926 2.40186C54.1654 5.35409 54.2117 8.31027 54.1708 11.2625C54.2757 11.7277 53.6955 11.5867 53.4899 11.3718C50.5416 9.18539 47.6055 6.98177 44.649 4.80582C44.6122 6.7419 44.7144 8.68457 44.6054 10.6167C44.1778 11.1438 43.4302 11.472 42.7356 11.584C42.7057 8.52114 42.7356 5.45821 42.7166 2.39396C42.7042 2.02579 42.7233 1.65726 42.7738 1.29215V1.29478ZM65.312 5.17353C65.848 2.89742 68.149 1.16167 70.562 1.22625C72.468 1.26315 74.368 1.15508 76.265 1.27897C76.246 1.94717 75.809 2.52707 75.392 3.03053C73.663 3.18078 71.913 2.97913 70.182 3.12015C68.763 3.28885 67.498 4.34453 67.186 5.70203C66.679 7.54717 68.247 9.57419 70.202 9.68226C71.673 9.70862 73.145 9.68226 74.617 9.68226C74.617 8.89149 74.617 8.10862 74.617 7.3218C73.518 7.30598 72.416 7.34816 71.317 7.31125C70.845 7.36134 70.687 6.8302 70.468 6.52971C70.332 6.20417 69.972 5.87073 70.154 5.49906C71.941 5.40549 73.736 5.49906 75.527 5.45557C75.851 5.49775 76.273 5.35409 76.514 5.6414C76.565 7.59989 76.514 9.56233 76.532 11.5221C75.182 11.613 73.829 11.5524 72.479 11.5669C71.074 11.5471 69.584 11.729 68.286 11.0793C66.017 10.1225 64.657 7.49445 65.319 5.17089L65.312 5.17353ZM-31.0477 7.12542C-30.6991 6.75376 -30.1502 6.85129 -29.6859 6.83284C-28.0517 6.85788 -26.4257 6.81175 -24.797 6.86315C-24.782 7.36529 -24.5001 8.15607 -25.1279 8.41043C-27.6772 9.51883 -30.2401 10.5956 -32.8017 11.6802C-33.4704 11.9438 -34.1199 12.3076 -34.8444 12.3998C-35.2094 12.2931 -35.5349 11.957 -35.4613 11.5629C-35.2339 11.0648 -34.7913 10.7063 -34.4059 10.3228C-33.2743 9.26842 -32.2011 8.15211 -31.0409 7.12542H-31.0477ZM-23.7443 6.86183C-22.0461 6.8302 -20.3397 6.86183 -18.647 6.84075C-18.2929 6.8671 -17.8667 6.79462 -17.5929 7.06743C-16.3469 8.19429 -15.158 9.37781 -13.9419 10.5336C-13.6287 10.8605 -13.261 11.1636 -13.0908 11.588C-12.9927 12.16 -13.7172 12.6054 -14.2279 12.2997C-17.3015 11.074 -20.3316 9.74025 -23.3711 8.43943C-24.0697 8.20747 -23.8151 7.39165 -23.7443 6.86447" fill="#060B13"/>
</g>
</g>
<defs>
<clipPath id="clip0_1_792">
<rect width="112" height="12" fill="white" transform="translate(-35.48 0.399902)"/>
</clipPath>
</defs>
</svg>
