<svg width="105" height="13" viewBox="0 0 105 13" fill="none" xmlns="http://www.w3.org/2000/svg">
<g clip-path="url(#clip0_1_820)">
<mask id="mask0_1_820" style="mask-type:luminance" maskUnits="userSpaceOnUse" x="0" y="0" width="105" height="13">
<path d="M104.52 0.399902H0.52002V12.3999H104.52V0.399902Z" fill="white"/>
</mask>
<g mask="url(#mask0_1_820)">
<path d="M5.28176 12.2145L0.52002 0.584961H2.95921L6.44474 9.2608L9.95086 0.584961H12.39L7.6043 12.2145H5.28176Z" fill="#060B13"/>
<path d="M14.4895 5.37759H21.6424C21.4352 4.59208 20.9742 3.89368 20.3285 3.38713C19.6981 2.87744 18.9049 2.602 18.0883 2.60914C17.2503 2.58843 16.4321 2.86056 15.7795 3.37703C15.1401 3.88907 14.6874 4.59115 14.4895 5.37759ZM13.7725 10.6586C13.2007 10.1076 12.7491 9.44811 12.4454 8.72027C12.1416 7.99242 11.992 7.21147 12.0057 6.42502C11.9926 5.63722 12.1399 4.85477 12.4392 4.1237C12.7385 3.39262 13.1837 2.72767 13.7485 2.16794C14.2959 1.59585 14.9595 1.14288 15.6964 0.838304C16.4333 0.533732 17.2271 0.384337 18.0265 0.399766C19.5877 0.382109 21.0965 0.952166 22.2428 1.9928C22.8377 2.52395 23.3129 3.17137 23.6378 3.89349C23.9628 4.6156 24.1303 5.39646 24.1296 6.1859C24.1316 6.53506 24.1087 6.88394 24.061 7.22996H14.4895C14.5251 7.64001 14.6428 8.03913 14.8359 8.4044C15.029 8.76967 15.2937 9.09392 15.6148 9.35851C16.2843 9.91477 17.1395 10.2086 18.0162 10.1837C18.547 10.2024 19.0757 10.1083 19.566 9.90775C20.0563 9.7072 20.4966 9.40495 20.8568 9.02171L23.6288 9.04528C23.1134 10.0462 22.3263 10.8878 21.3543 11.477C20.377 12.0853 19.242 12.4046 18.0849 12.3964C17.2832 12.4116 16.4869 12.2652 15.7452 11.9663C15.0035 11.6674 14.3321 11.2223 13.7725 10.6586Z" fill="#060B13"/>
<path d="M25.7043 12.2147V6.15238C25.7043 4.29103 26.1617 2.89108 27.0766 1.95255C27.544 1.48168 28.1074 1.11293 28.7299 0.870341C29.3523 0.627757 30.0199 0.516811 30.6891 0.54475H30.9258V2.75749H30.6891C28.9188 2.75749 28.0349 3.88912 28.0372 6.15238V12.2147H25.7043Z" fill="#060B13"/>
<path d="M37.8625 2.60916C37.3526 2.59336 36.8449 2.6826 36.3722 2.87113C35.8995 3.05965 35.4723 3.34328 35.118 3.70374C34.4133 4.43018 34.0202 5.39492 34.0202 6.3981C34.0202 7.40128 34.4133 8.36602 35.118 9.09246C35.4673 9.45158 35.889 9.73529 36.3563 9.92549C36.8235 10.1157 37.326 10.2082 37.8317 10.1971C38.3322 10.2095 38.8298 10.1188 39.2925 9.93083C39.7551 9.74288 40.1725 9.46189 40.5178 9.10593C41.2104 8.37342 41.5952 7.41097 41.5952 6.41157C41.5952 5.41218 41.2104 4.44973 40.5178 3.71721C40.1732 3.36014 39.756 3.07817 39.2933 2.88961C38.8305 2.70104 38.3325 2.61008 37.8317 2.62263L37.8625 2.60916ZM33.5125 2.14438C34.513 1.15928 35.8306 0.545331 37.2406 0.407172C38.6507 0.269013 40.0659 0.615197 41.245 1.38672C42.4241 2.15825 43.2943 3.30735 43.707 4.63817C44.1197 5.96899 44.0496 7.39914 43.5085 8.68487C42.9674 9.97059 41.9888 11.0323 40.7396 11.689C39.4904 12.3457 38.0479 12.5568 36.6579 12.2863C35.2679 12.0157 34.0165 11.2803 33.117 10.2053C32.2175 9.13041 31.7256 7.78249 31.7251 6.39136C31.7124 5.60123 31.8644 4.81689 32.1718 4.08655C32.4791 3.3562 32.9354 2.69528 33.5125 2.14438Z" fill="#060B13"/>
<path d="M55.9729 12.2145H53.321L50.2643 8.0517L47.2076 12.2145H44.5317L48.9367 6.16902L44.8851 0.584961H47.5164L50.2403 4.30654L53.0123 0.584961H55.6436L51.592 6.16902L55.9729 12.2145Z" fill="#060B13"/>
<path d="M58.666 12.1774V8.28743H56.5425V6.94026H58.666V6.526L58.7141 5.10809C58.8421 3.6958 59.2927 2.58663 60.0657 1.78057C60.8835 0.956382 61.9837 0.459512 63.1533 0.38623V1.80751C62.3782 1.92437 61.6655 2.2932 61.1292 2.85493C60.5713 3.48259 60.2492 4.279 60.2167 5.11146L60.1687 6.52937V6.94363H63.9046V8.29081H60.1824V12.1808L58.666 12.1774Z" fill="#060B13"/>
<path d="M67.8257 0.588379H66.3093V12.2179H67.8257V0.588379Z" fill="#060B13"/>
<path d="M79.7405 3.15476C79.3209 2.72353 78.8144 2.38282 78.2533 2.15436C77.6922 1.92589 77.0887 1.81467 76.4814 1.82779C75.8713 1.81696 75.2655 1.92914 74.7014 2.15739C74.1372 2.38564 73.6268 2.72509 73.2017 3.15476C72.3403 4.02533 71.8585 5.19118 71.8585 6.40483C71.8585 7.61848 72.3403 8.78433 73.2017 9.6549C73.6231 10.0879 74.1309 10.4311 74.6934 10.6629C75.256 10.8947 75.8611 11.0101 76.4711 11.0021C77.0763 11.0134 77.6774 10.9017 78.2365 10.6739C78.7956 10.4461 79.3007 10.1072 79.7199 9.67848C80.5672 8.79812 81.0393 7.63286 81.0393 6.42168C81.0393 5.2105 80.5672 4.04522 79.7199 3.16486L79.7405 3.15476ZM72.1348 2.14438C73.1353 1.15928 74.4529 0.545331 75.8629 0.407172C77.273 0.269013 78.6882 0.615197 79.8673 1.38672C81.0464 2.15825 81.9165 3.30735 82.3293 4.63817C82.742 5.96899 82.6718 7.39914 82.1307 8.68487C81.5896 9.97059 80.6111 11.0323 79.3619 11.689C78.1127 12.3457 76.6701 12.5568 75.2802 12.2863C73.8902 12.0157 72.6388 11.2803 71.7393 10.2053C70.8398 9.13041 70.3479 7.78249 70.3474 6.39136C70.3347 5.60123 70.4867 4.81689 70.7941 4.08655C71.1014 3.3562 71.5577 2.69528 72.1348 2.14438Z" fill="#060B13"/>
<path d="M94.4478 3.15476C94.0282 2.72353 93.5217 2.38282 92.9606 2.15436C92.3994 1.92589 91.796 1.81467 91.1887 1.82779C90.5786 1.81696 89.9728 1.92914 89.4087 2.15739C88.8445 2.38564 88.3341 2.72509 87.909 3.15476C87.0476 4.02533 86.5658 5.19118 86.5658 6.40483C86.5658 7.61848 87.0476 8.78433 87.909 9.6549C88.3301 10.0883 88.8379 10.4316 89.4005 10.6634C89.963 10.8953 90.5683 11.0105 91.1784 11.0021C91.7832 11.0138 92.3838 10.9022 92.9424 10.6743C93.501 10.4465 94.0054 10.1074 94.4238 9.67848C95.2719 8.79851 95.7444 7.63309 95.7444 6.42168C95.7444 5.21026 95.2719 4.04483 94.4238 3.16486L94.4478 3.15476ZM86.8455 2.14438C87.846 1.15928 89.1636 0.545331 90.5736 0.407172C91.9837 0.269013 93.3989 0.615197 94.578 1.38672C95.7572 2.15825 96.6272 3.30735 97.04 4.63817C97.4527 5.96899 97.3826 7.39914 96.8415 8.68487C96.3004 9.97059 95.3218 11.0323 94.0726 11.689C92.8234 12.3457 91.3809 12.5568 89.9909 12.2863C88.6009 12.0157 87.3495 11.2803 86.45 10.2053C85.5505 9.13041 85.0586 7.78249 85.0581 6.39136C85.0452 5.6012 85.1971 4.81681 85.5045 4.08644C85.8119 3.35606 86.2682 2.69516 86.8455 2.14438Z" fill="#060B13"/>
<path d="M99.0686 12.2146V6.18601C99.0686 4.31118 99.5066 2.90001 100.383 1.9525C100.833 1.47806 101.382 1.10548 101.994 0.860628C102.605 0.615773 103.263 0.50452 103.923 0.534594C104.038 0.532826 104.152 0.539581 104.266 0.554801V1.97607C104.153 1.95781 104.038 1.94991 103.923 1.9525C103.46 1.93372 102.998 2.02068 102.575 2.20651C102.152 2.39234 101.778 2.672 101.484 3.0235C100.885 3.73526 100.585 4.78943 100.585 6.18601V12.2146H99.0686Z" fill="#060B13"/>
<path d="M102.969 10.9213H103.227C103.314 10.9302 103.402 10.9113 103.477 10.8674C103.499 10.8507 103.516 10.8291 103.527 10.8045C103.539 10.7799 103.544 10.753 103.542 10.726C103.543 10.69 103.532 10.6548 103.511 10.6249C103.489 10.5946 103.458 10.5713 103.422 10.5576C103.353 10.5406 103.281 10.5338 103.21 10.5374H102.969V10.9213ZM102.757 11.6454V10.3622H103.21C103.325 10.3561 103.441 10.3674 103.553 10.3959C103.619 10.4197 103.677 10.4633 103.717 10.5205C103.757 10.5759 103.778 10.6416 103.779 10.7091C103.78 10.7548 103.771 10.8002 103.753 10.8424C103.736 10.8847 103.709 10.923 103.676 10.955C103.602 11.0255 103.505 11.0663 103.402 11.0695C103.444 11.0855 103.482 11.1096 103.515 11.1402C103.588 11.2176 103.652 11.3023 103.707 11.3928L103.868 11.6454H103.611L103.494 11.4433C103.44 11.3305 103.364 11.2288 103.271 11.1436C103.222 11.1103 103.163 11.0948 103.103 11.0998H102.969V11.6454H102.757ZM103.292 9.98837C103.117 9.99005 102.946 10.0352 102.794 10.1197C102.634 10.2029 102.501 10.3306 102.414 10.4868C102.324 10.6382 102.276 10.8102 102.276 10.9853C102.277 11.1589 102.323 11.3294 102.41 11.4804C102.498 11.6357 102.629 11.7631 102.788 11.8475C102.94 11.9357 103.115 11.9823 103.292 11.9823C103.469 11.9823 103.643 11.9357 103.796 11.8475C103.955 11.7631 104.086 11.6357 104.174 11.4804C104.258 11.3285 104.303 11.1584 104.304 10.9853C104.304 10.8106 104.258 10.6388 104.17 10.4868C104.082 10.3313 103.949 10.2039 103.789 10.1197C103.644 10.0385 103.48 9.9934 103.312 9.98837H103.292ZM103.292 9.79302C103.501 9.79377 103.706 9.84589 103.889 9.9446C104.08 10.0462 104.239 10.1993 104.345 10.3858C104.449 10.5691 104.505 10.7753 104.506 10.9853C104.507 11.1934 104.451 11.398 104.345 11.5781C104.242 11.7659 104.086 11.9204 103.896 12.0226C103.711 12.1241 103.503 12.1774 103.292 12.1774C103.08 12.1774 102.873 12.1241 102.688 12.0226C102.502 11.9166 102.35 11.7614 102.249 11.5747C102.142 11.3934 102.086 11.1879 102.086 10.9786C102.086 10.7693 102.142 10.5637 102.249 10.3824C102.355 10.1959 102.514 10.0429 102.705 9.94122C102.892 9.84203 103.101 9.79103 103.312 9.79302H103.292Z" fill="#060B13"/>
</g>
</g>
<defs>
<clipPath id="clip0_1_820">
<rect width="104" height="12" fill="white" transform="translate(0.52002 0.399902)"/>
</clipPath>
</defs>
</svg>
