<svg width="123" height="13" viewBox="0 0 123 13" fill="none" xmlns="http://www.w3.org/2000/svg">
<g clip-path="url(#clip0_1_840)">
<path d="M12.8573 4.48018C12.8573 2.48991 11.527 0.682093 9.00497 0.667413C7.30798 0.667413 2.21701 0.650635 0.52002 0.650635V12.1707H2.53886V8.3265H7.8795L11.0004 12.1707H13.3996V12.0239L10.1578 8.09581C12.1922 7.65119 12.8651 6.0573 12.8651 4.48018H12.8573ZM2.54666 6.36769V2.68705H9.01278C10.2806 2.68705 10.8463 3.60773 10.8463 4.52842C10.8463 5.4491 10.2962 6.36978 9.01278 6.36978L2.54666 6.36769Z" fill="#060B13"/>
<path d="M26.843 0.65483C25.1616 0.65483 20.0862 0.671608 18.4048 0.671608V12.1749H20.4217V8.78579H26.843C32.0861 8.78579 32.0705 0.650635 26.843 0.650635V0.65483ZM26.843 6.79762H20.4217V2.7206H26.843C29.4099 2.7206 29.4255 6.79762 26.843 6.79762Z" fill="#060B13"/>
<path d="M63.7183 6.2228C64.7112 5.74463 65.1091 4.89106 65.1091 4.00184C65.1091 1.69488 63.535 0.667236 61.4245 0.667236H52.9551V12.1705H61.4245C63.6403 12.1705 65.429 11.3505 65.429 8.78562C65.429 8.06207 64.9706 6.63176 63.7183 6.2228ZM54.9408 2.63864H61.4225C62.7079 2.63864 63.1039 3.52576 63.1039 4.05217C63.1039 4.7086 62.6923 5.28534 61.4225 5.28534H54.9428L54.9408 2.63864ZM61.4225 10.1509H54.9428V7.19172H61.4245C62.2496 7.19172 63.4277 7.73281 63.4277 8.76884C63.4277 9.85311 62.2574 10.1509 61.4245 10.1509" fill="#060B13"/>
<path d="M72.2754 0.667236H70.2566V12.1726H81.172V10.1656H72.2754V0.667236Z" fill="#060B13"/>
<path d="M88.0186 0.667236H86.0154V12.1726H88.0186V0.667236Z" fill="#060B13"/>
<path d="M103.145 8.99334C102.856 9.30207 102.528 9.56479 102.17 9.77351C101.767 10.0034 101.339 10.1781 100.896 10.2936C100.393 10.4233 99.8767 10.4867 99.3592 10.4824C98.6804 10.4944 98.0046 10.3838 97.3598 10.1552C96.8268 9.96228 96.3339 9.65953 95.9086 9.26387C95.5273 8.9015 95.225 8.45326 95.0231 7.95101C94.8261 7.46103 94.7245 6.93285 94.7246 6.39905C94.7235 5.85973 94.8251 5.32587 95.0231 4.83032C95.225 4.32808 95.5273 3.87983 95.9086 3.51745C96.334 3.12179 96.8288 2.82159 97.3637 2.63452C98.0087 2.41074 98.6835 2.30303 99.3611 2.31574C99.8545 2.31326 100.347 2.37096 100.828 2.48771C101.255 2.59078 101.67 2.74557 102.065 2.94911C102.42 3.13325 102.749 3.37281 103.04 3.66007C103.215 3.83666 103.374 4.03123 103.514 4.241L105.215 3.23013C104.999 2.89475 104.751 2.58537 104.473 2.30735C104.08 1.91242 103.64 1.57532 103.165 1.30488C102.636 1.00668 102.073 0.782553 101.491 0.637954C100.827 0.475092 100.148 0.395564 99.4664 0.400966C98.4889 0.384902 97.5162 0.55094 96.5913 0.891721C95.8145 1.17942 95.0961 1.62435 94.4749 2.20249C93.9204 2.72663 93.4762 3.37185 93.1719 4.09513C92.8676 4.8184 92.7102 5.60312 92.7102 6.39696C92.7102 7.19079 92.8676 7.97551 93.1719 8.69879C93.4762 9.42207 93.9204 10.0673 94.4749 10.5914C95.0955 11.1705 95.8141 11.6155 96.5913 11.9022C97.5121 12.2437 98.4808 12.4118 99.4547 12.3992C100.157 12.4054 100.858 12.3202 101.542 12.1455C102.137 11.9909 102.711 11.7533 103.249 11.4387C103.733 11.1573 104.178 10.8043 104.571 10.3901C104.856 10.0863 105.108 9.7477 105.32 9.38132L103.611 8.37465C103.478 8.60222 103.322 8.81323 103.145 9.00382" fill="#060B13"/>
<path d="M44.4234 0.654786C44.1965 0.65451 43.9718 0.702314 43.7622 0.795466C43.5525 0.888618 43.362 1.02529 43.2015 1.19767C43.0409 1.37004 42.9136 1.57474 42.8267 1.80007C42.7399 2.02539 42.6952 2.26692 42.6952 2.51083H45.9155V6.48089C45.8557 7.00845 45.7472 7.52832 45.5917 8.03284C45.3898 8.53508 45.0875 8.98333 44.7062 9.3457C44.2805 9.74182 43.7868 10.0446 43.253 10.237C42.188 10.6906 41.0021 10.6906 39.9371 10.237C39.4033 10.0446 38.9096 9.74182 38.4839 9.3457C38.1026 8.98333 37.8002 8.53508 37.5983 8.03284C37.4429 7.52832 37.3344 7.00845 37.2745 6.48089V0.654786H35.2811V6.48089C35.2764 7.27457 35.4307 8.06003 35.7337 8.78383C36.0366 9.50762 36.481 10.1528 37.0366 10.6753C37.6582 11.2523 38.3774 11.6952 39.1549 11.9798C40.7396 12.533 42.4465 12.533 44.0313 11.9798C44.8085 11.6931 45.5271 11.2481 46.1477 10.669C46.7033 10.1465 47.1476 9.50132 47.4506 8.77753C47.7535 8.05374 47.9079 7.26828 47.9032 6.4746V0.654786H44.4234Z" fill="#060B13"/>
<path d="M115.022 2.56104L110.309 12.1705H108.302L113.904 0.738541V0.667236H116.881L122.52 12.1705H120.513L119.315 9.73776H115.724C115.491 9.73776 115.26 9.68834 115.044 9.59233C114.829 9.49631 114.633 9.35558 114.468 9.17817C114.303 9.00075 114.172 8.79013 114.083 8.55833C113.993 8.32653 113.947 8.07809 113.947 7.82719H118.375L115.787 2.56104H115.022Z" fill="#060B13"/>
</g>
<defs>
<clipPath id="clip0_1_840">
<rect width="122" height="12" fill="white" transform="translate(0.52002 0.399902)"/>
</clipPath>
</defs>
</svg>
