<svg width="97" height="21" viewBox="0 0 97 21" fill="none" xmlns="http://www.w3.org/2000/svg">
<g clip-path="url(#clip0_1_852)">
<mask id="mask0_1_852" style="mask-type:luminance" maskUnits="userSpaceOnUse" x="0" y="0" width="97" height="21">
<path d="M96.52 0.399902H0.52002V20.3999H96.52V0.399902Z" fill="white"/>
</mask>
<g mask="url(#mask0_1_852)">
<path d="M9.33717 4.90144C9.28174 4.82835 9.21867 4.78979 9.14837 4.78979C9.09663 4.79185 9.04652 4.80841 9.00375 4.83758C8.47108 5.25606 7.74237 7.02754 7.14502 9.36248L7.67368 9.36851C8.71813 9.38016 9.79633 9.3926 10.8625 9.40866C10.5813 8.33918 10.3157 7.42273 10.0723 6.68257C9.71639 5.60145 9.47617 5.1171 9.33717 4.90144Z" fill="#060B13"/>
<path d="M10.5232 0.399902C4.99882 0.399902 0.520508 4.87701 0.520508 10.3999C0.520508 15.9228 4.99882 20.3999 10.5232 20.3999C16.0475 20.3999 20.5258 15.9228 20.5258 10.3999C20.5258 4.87701 16.0471 0.399902 10.5232 0.399902ZM17.7138 10.5814L17.7114 10.5834C17.7006 10.5923 17.6897 10.6003 17.6781 10.6083L17.6668 10.616L17.6435 10.63L17.6219 10.6425C17.5459 10.6823 17.4614 10.7031 17.3756 10.7031H12.6378C12.6756 10.8601 12.7181 11.0385 12.7619 11.2324C13.0214 12.3541 13.7116 15.3336 14.4443 15.3336H14.46H14.468H14.4821C15.0545 15.3336 15.3465 14.5063 15.9869 12.6935L15.9945 12.6714C16.0973 12.3802 16.2134 12.0517 16.3392 11.7043L16.3713 11.6156C16.3903 11.5655 16.4262 11.5236 16.4729 11.4972C16.5195 11.4708 16.5739 11.4616 16.6267 11.4711C16.6794 11.4807 16.7272 11.5084 16.7616 11.5494C16.796 11.5905 16.815 11.6423 16.8152 11.6959C16.8151 11.7182 16.8119 11.7404 16.8056 11.7617L16.7791 11.8509C16.7124 12.0666 16.6413 12.3605 16.5593 12.7007C16.1777 14.2818 15.6012 16.6706 14.1221 16.6706H14.1113C13.1556 16.663 12.5848 15.1356 12.3393 14.4834C11.8826 13.2638 11.5359 11.9642 11.2037 10.7055H6.84108L5.93561 13.6007L5.92236 13.5903C5.86906 13.6743 5.78994 13.7389 5.69685 13.7742C5.60376 13.8095 5.50173 13.8137 5.40605 13.7862C5.31038 13.7586 5.22622 13.7008 5.16619 13.6214C5.10617 13.542 5.07352 13.4452 5.07313 13.3457V13.33L5.12777 13.0023C5.2527 12.2577 5.40254 11.485 5.57367 10.7039H3.73422L3.72739 10.6971C3.56319 10.6718 3.41341 10.5887 3.30507 10.4628C3.19672 10.3369 3.13693 10.1764 3.13647 10.0103C3.13558 9.84802 3.19196 9.69057 3.2957 9.5657C3.39945 9.44083 3.54391 9.35652 3.70369 9.32761C3.7752 9.32004 3.84711 9.31695 3.91901 9.31837C3.94552 9.31837 3.97525 9.31837 4.00859 9.31837C4.59228 9.32841 5.21373 9.33765 5.89102 9.34649C6.85232 5.44127 7.96587 3.45894 9.20114 3.45331C10.5268 3.45331 11.5098 6.47018 12.2967 9.42159L12.2999 9.43323C13.9168 9.46576 15.6402 9.51355 17.3157 9.63404L17.386 9.64046C17.413 9.64097 17.4398 9.64338 17.4664 9.64769H17.476L17.4845 9.6497H17.4889C17.5873 9.66965 17.678 9.71714 17.7504 9.78664C17.8229 9.85614 17.8741 9.94479 17.8981 10.0423C17.9221 10.1397 17.9179 10.242 17.886 10.3372C17.8541 10.4323 17.7958 10.5165 17.7179 10.5798L17.7138 10.5814Z" fill="#060B13"/>
<path d="M26.0763 12.9018L25.2833 14.8609H22.9795L27.363 4.63159H29.3977L33.7659 14.8613H31.4761L30.6831 12.9022L26.0763 12.9018ZM28.3661 7.21874L26.8701 10.9428H29.8918L28.3661 7.21874Z" fill="#060B13"/>
<path d="M46.7505 10.9281V14.8615H44.6713V11.1077C44.6713 9.97113 44.1177 9.35788 43.1448 9.35788C42.7109 9.35788 42.2321 9.55226 41.7982 10.1507C41.8337 10.4084 41.8537 10.668 41.8581 10.9281V14.8615H39.7796V11.1077C39.7796 9.97113 39.226 9.35788 38.2386 9.35788C37.8369 9.35788 37.3858 9.59884 36.9672 10.1655V14.8615H34.8879V7.69764H36.9672V8.13137C37.4159 7.7125 37.8947 7.47314 38.7323 7.47314C39.645 7.47314 40.4525 7.83218 41.0221 8.49001C41.7853 7.7872 42.5032 7.47314 43.6252 7.47314C45.3743 7.47314 46.7505 8.83418 46.7505 10.9281Z" fill="#060B13"/>
<path d="M55.8907 11.2865C55.8907 13.3652 54.3052 15.0102 52.3303 15.0102C51.5225 15.0102 50.8492 14.801 50.2961 14.4419V18.3154H48.2168V7.697H50.2961V8.11588C50.8496 7.75684 51.5229 7.54761 52.3303 7.54761C54.3048 7.54801 55.8907 9.17813 55.8907 11.2865ZM53.842 11.2865C53.842 10.2247 53.0643 9.29741 51.9869 9.29741C51.3735 9.29741 50.76 9.50664 50.2965 10.1347V12.4239C50.76 13.0371 51.3735 13.2464 51.9869 13.2464C53.0647 13.2452 53.842 12.3335 53.842 11.2865Z" fill="#060B13"/>
<path d="M59.1362 14.8611H57.0571V4.24292H59.1362V14.8611Z" fill="#060B13"/>
<path d="M61.0066 5.17011C61.0066 4.4673 61.5601 3.9436 62.2631 3.9436C62.9512 3.9436 63.5047 4.46569 63.5047 5.17011C63.5047 5.85806 62.9512 6.3665 62.2631 6.3665C61.5601 6.3665 61.0066 5.85806 61.0066 5.17011ZM63.3103 7.69742V14.8612H61.2311V7.69742H63.3103Z" fill="#060B13"/>
<path d="M70.8645 14.7566C69.9968 15.0257 69.6079 15.0856 68.9363 15.0856C67.2009 15.0856 66.0641 13.859 66.0641 12.0048V9.44737H64.5537V7.69757H66.0645V5.14014H68.1289V7.69757H70.7167V9.44737H68.1289V11.99C68.1289 12.7976 68.6226 13.1715 69.3854 13.1715C69.7743 13.1715 70.1932 13.0819 70.5969 12.9771L70.8645 14.7566Z" fill="#060B13"/>
<path d="M79.2118 14.861H77.1325V14.3525C76.5492 14.816 75.8908 15.0855 75.0838 15.0855C73.1989 15.0855 71.9424 13.7244 71.9424 11.6457V7.69751H74.0216V11.4513C74.0216 12.5879 74.5901 13.2011 75.5626 13.2011C76.0848 13.2011 76.6545 12.8871 77.1333 12.3039V7.69751H79.2126L79.2118 14.861Z" fill="#060B13"/>
<path d="M88.0383 14.861H85.959V14.4421C85.4055 14.8012 84.7322 15.0104 83.9244 15.0104C81.9495 15.0104 80.3491 13.3803 80.3491 11.2715C80.3491 9.19271 81.9499 7.54733 83.9244 7.54733C84.7322 7.54733 85.4055 7.75657 85.959 8.1156V4.24292H88.0383V14.861ZM85.9586 12.4237V10.1345C85.4951 9.52123 84.8816 9.31199 84.2682 9.31199C83.1764 9.31199 82.4131 10.2244 82.4131 11.2711C82.4131 12.3329 83.1764 13.2602 84.2682 13.2602C84.8804 13.261 85.4951 13.0518 85.9586 12.4237Z" fill="#060B13"/>
<path d="M96.4752 11.8104H91.1946C91.3593 12.6478 91.9129 13.306 93.0497 13.306C93.633 13.306 94.0369 13.1265 94.2613 12.7675H96.4306C96.0418 14.1434 94.6952 15.0855 93.0047 15.0855C90.7009 15.0855 89.145 13.4257 89.145 11.2867C89.145 9.07345 90.686 7.47144 92.9449 7.47144C94.9937 7.47144 96.5202 8.92204 96.5202 11.1357C96.5235 11.3615 96.5084 11.5871 96.4752 11.8104ZM91.2095 10.5839H94.4558C94.3353 9.6867 93.7974 9.19313 92.9598 9.19313C91.9575 9.19313 91.4039 9.77626 91.2095 10.5839Z" fill="#060B13"/>
</g>
</g>
<defs>
<clipPath id="clip0_1_852">
<rect width="96" height="20" fill="white" transform="translate(0.52002 0.399902)"/>
</clipPath>
</defs>
</svg>
