<svg width="91" height="19" viewBox="0 0 91 19" fill="none" xmlns="http://www.w3.org/2000/svg">
<g clip-path="url(#clip0_1_872)">
<mask id="mask0_1_872" style="mask-type:luminance" maskUnits="userSpaceOnUse" x="0" y="0" width="111" height="19">
<path d="M110.52 0.409912H0.52002V18.3599H110.52V0.409912Z" fill="white"/>
</mask>
<g mask="url(#mask0_1_872)">
<path fill-rule="evenodd" clip-rule="evenodd" d="M22.9728 0.424274L0.664852 9.30933C0.620077 9.32795 0.582698 9.36086 0.558528 9.40295C0.533199 9.44098 0.519794 9.48573 0.520031 9.53145C0.519566 9.5772 0.532991 9.62202 0.558528 9.65996C0.584197 9.69862 0.62141 9.72817 0.664852 9.7444L7.28813 12.1364C7.32358 12.1507 7.36221 12.155 7.39996 12.1492C7.437 12.1434 7.47215 12.1289 7.50262 12.107L20.0672 2.93925C20.0704 2.9379 20.0739 2.93719 20.0773 2.93719C20.0808 2.93719 20.0842 2.9379 20.0874 2.93925C20.0944 2.94113 20.1008 2.94494 20.1057 2.95027C20.107 2.95318 20.1075 2.95629 20.1075 2.95945C20.1075 2.9626 20.107 2.96572 20.1057 2.96862C20.1083 2.97512 20.1083 2.98233 20.1057 2.98882L8.98382 12.6761C8.95818 12.6985 8.93756 12.726 8.92333 12.7569C8.91001 12.7881 8.90376 12.822 8.90499 12.856V18.0145C8.90367 18.0611 8.91785 18.107 8.94533 18.1448C8.97282 18.1832 9.01111 18.2126 9.05532 18.2292C9.09958 18.245 9.14766 18.2464 9.19273 18.2331C9.23781 18.22 9.2776 18.193 9.30646 18.1558L12.5164 14.1943C12.5463 14.158 12.5866 14.1318 12.6318 14.119C12.6772 14.1043 12.7259 14.1043 12.7712 14.119L16.8629 15.6041C16.9169 15.6261 16.9775 15.6261 17.0315 15.6041C17.0847 15.5797 17.127 15.5366 17.1507 15.483L23.2698 0.721666C23.2862 0.680889 23.29 0.636137 23.2808 0.593163C23.2731 0.54926 23.252 0.508841 23.2203 0.477511C23.1897 0.445168 23.15 0.422797 23.1066 0.413302C23.0631 0.403808 23.0178 0.407631 22.9765 0.424274" fill="#060B13"/>
<path d="M30.0232 2.21436H28.0066L28.036 14.5139H30.0525L30.0232 2.21436Z" fill="#060B13"/>
<path d="M36.3716 5.66382C35.3525 5.66382 34.4194 6.03096 33.8346 6.76526V5.84739H31.9336L31.9556 14.5122H33.8566L33.8419 8.77542C34.0192 8.36142 34.3157 8.00972 34.6935 7.76515C35.0712 7.52058 35.5131 7.39425 35.9628 7.40228C37.1727 7.40228 37.8657 8.26324 37.8694 9.63271L37.8804 14.5122H39.7814L39.7686 9.32981C39.7686 7.09019 38.445 5.67116 36.3716 5.67666" fill="#060B13"/>
<path d="M47.6347 5.81068L45.0023 11.8833L42.3606 5.82537H40.2524L44.1792 14.4809H45.8565L49.7558 5.80518L47.6347 5.81068Z" fill="#060B13"/>
<path d="M54.4743 5.62154C53.3665 5.63992 52.305 6.06988 51.4959 6.82794C50.6868 7.586 50.188 8.61809 50.0962 9.7238C50.0043 10.8295 50.3261 11.9299 50.9989 12.8115C51.6718 13.693 52.6477 14.2926 53.7372 14.4941C54.8269 14.6955 55.9523 14.4842 56.8951 13.9014C57.8379 13.3186 58.5307 12.4057 58.8392 11.34C59.1475 10.2743 59.0495 9.13191 58.5641 8.13454C58.0786 7.13718 57.2404 6.35604 56.2121 5.9428C55.6602 5.72028 55.0692 5.61104 54.4743 5.62154ZM54.4908 12.8655C52.9546 12.8655 51.8786 11.6758 51.8766 10.1338C51.8749 8.59179 52.9362 7.39305 54.4779 7.3802C56.0197 7.36735 57.0738 8.5716 57.0774 10.1136C57.0811 11.6556 56.0123 12.8526 54.4963 12.8563L54.4908 12.8655Z" fill="#060B13"/>
<path d="M62.2653 5.76855H60.3643L60.3881 14.4333H62.2873L62.2653 5.76855Z" fill="#060B13"/>
<path d="M62.2653 2.42725H60.3643V4.1862H62.2653V2.42725Z" fill="#060B13"/>
<path d="M68.3258 7.35469C68.8251 7.35121 69.3148 7.49276 69.7354 7.76221C70.1561 8.03165 70.4898 8.41744 70.696 8.87285L72.3459 7.96967C71.9595 7.23756 71.378 6.62699 70.6662 6.20572C69.9542 5.78445 69.1397 5.56898 68.313 5.58318C65.7281 5.58686 63.7666 7.53826 63.7666 10.1065C63.7666 12.6747 65.7556 14.6059 68.3496 14.6023C69.1761 14.6137 69.9897 14.3952 70.6995 13.9709C71.4094 13.5466 71.9875 12.9333 72.3697 12.1992L70.7088 11.2961C70.5056 11.7532 70.174 12.1412 69.7545 12.4131C69.335 12.6849 68.8456 12.8287 68.346 12.827C66.8097 12.827 65.7171 11.6375 65.7135 10.0955C65.7098 8.55343 66.7969 7.35469 68.335 7.34184" fill="#060B13"/>
<path d="M77.8636 5.56104C75.2368 5.56104 73.3504 7.53264 73.3651 10.0807C73.3651 12.7076 75.2606 14.5819 77.882 14.5764C79.6877 14.5764 81.0442 13.7871 81.816 12.5571L80.3715 11.5217C79.9242 12.2835 79.1084 12.8417 77.904 12.8453C76.4704 12.8453 75.3266 11.9146 75.2368 10.4937L82.0195 10.4772C82.036 10.2018 82.036 10.0439 82.036 9.85304C82.036 7.06636 80.124 5.56288 77.8618 5.56654L77.8636 5.56104ZM75.3156 9.10404C75.5721 7.81901 76.6904 7.17466 77.7995 7.17466C78.9086 7.17466 79.9077 7.84471 80.1185 9.09119L75.3156 9.10404Z" fill="#060B13"/>
<path d="M85.5703 12.7445L88.1624 9.21984C88.6849 8.5351 89.519 7.38408 89.6748 7.13258C90.3971 5.9375 90.4851 4.68185 89.8581 3.42804C89.3467 2.40735 88.4429 1.90986 87.3301 1.77585C85.7701 1.57759 84.1477 2.30088 83.4145 3.7805C83.244 4.10259 83.1322 4.45259 83.0845 4.81402L84.7472 5.18118C84.7728 5.10958 84.7966 5.05084 84.8131 4.9976C84.8923 4.69513 85.038 4.41426 85.2398 4.17568C85.4416 3.93708 85.6941 3.74684 85.9791 3.61895C86.5859 3.34175 87.4566 3.45006 87.9259 3.85576C88.7124 4.5405 88.7014 5.69152 88.1312 6.42582C88.0359 6.55065 83.1156 12.8289 83.1156 12.8289C83.0694 12.8837 83.0446 12.9536 83.046 13.0253V14.415L90.3476 14.3967V12.7445H85.5703Z" fill="#060B13"/>
</g>
</g>
<defs>
<clipPath id="clip0_1_872">
<rect width="110" height="17.95" fill="white" transform="translate(0.52002 0.409912)"/>
</clipPath>
</defs>
</svg>
