<svg width="35" height="33" viewBox="0 0 35 33" fill="none" xmlns="http://www.w3.org/2000/svg">
<path d="M11.3003 13.2837L6.1089 10.2656L0.910645 13.2837V19.3062L6.1089 22.3175L11.3003 19.3062V13.2837ZM10.1824 18.6585L6.1089 21.0152L2.03534 18.6585V13.9314L6.1089 11.5679L10.1824 13.9314V18.6585Z" fill="#81CB2D"/>
<path d="M22.5207 13.2768L17.5304 10.2656L12.5466 13.2768V19.2994L17.5304 22.3175L22.5207 19.2994V13.2768Z" fill="#81CB2D"/>
<path d="M28.96 10.2656L23.7686 13.2837V19.3062L28.96 22.3175L34.1582 19.3062V13.2837L28.96 10.2656ZM33.0336 18.6585L28.96 21.0152L24.8864 18.6585V13.9314L28.96 11.5679L33.0336 13.9314V18.6585Z" fill="#81CB2D"/>
<path d="M6.72974 23.2577V29.2803L11.9348 32.2915L17.1194 29.2803V23.2577L11.9348 20.2396L6.72974 23.2577ZM15.9824 28.6532L11.9348 30.9892L7.82555 28.6532V23.9054L11.9348 21.5419L15.9962 23.9054L15.9824 28.6532Z" fill="#81CB2D"/>
<path d="M17.9495 23.2577V29.2803L23.1408 32.2915L28.3391 29.2803V23.2577L23.1408 20.2396L17.9495 23.2577ZM27.2144 28.6532L23.1408 31.0099L19.0742 28.6532V23.9054L23.1408 21.5419L27.2144 23.9054V28.6532Z" fill="#81CB2D"/>
<path d="M17.1194 9.33218V3.28899L11.9417 0.291504L6.72974 3.28899V9.31152L11.9417 12.3435L17.1194 9.33218ZM7.827 3.97807L11.9417 1.59386L15.9947 3.97807V8.70514L11.9417 11.0411L7.827 8.68444V3.97807Z" fill="#81CB2D"/>
<path d="M28.3391 9.35287V3.30965L23.1408 0.291504L17.9495 3.30965V9.33218L23.1408 12.3435L28.3391 9.35287ZM19.0742 3.99873L23.1408 1.63521L27.2144 3.99873V8.72579L23.1408 11.0825L19.0742 8.72579V3.99873Z" fill="#81CB2D"/>
</svg>
