<svg width="28" height="33" viewBox="0 0 28 33" fill="none" xmlns="http://www.w3.org/2000/svg">
<path d="M13.9785 3.40299L19.296 6.47362L21.9921 4.92128L13.9785 0.291504L0.593018 8.02596L3.27556 9.57829L13.9785 3.40299Z" fill="#81CB2D"/>
<path d="M24.6768 6.47363L13.9807 12.6489L8.66323 9.57831L5.97388 11.1306L13.9807 15.7536L27.373 8.02597L24.6768 6.47363Z" fill="#81CB2D"/>
<path d="M2.74624 16.8634L0.0568848 15.3111V24.557L13.4424 32.2915V29.1868L2.74624 23.0047V16.8634Z" fill="#81CB2D"/>
<path d="M0.0568848 12.2063L10.753 18.3816V24.5229L13.4424 26.082V16.8293L0.0568848 9.10162V12.2063Z" fill="#81CB2D"/>
<path d="M22.5326 15.311V12.2064L14.519 16.8293V32.2914L17.2084 30.7391V18.3817L22.5326 15.311Z" fill="#81CB2D"/>
<path d="M25.2147 10.654V23.0046L19.8972 26.082V29.1867L27.9108 24.5569V9.10162L25.2147 10.654Z" fill="#81CB2D"/>
</svg>
