<svg width="26" height="33" viewBox="0 0 26 33" fill="none" xmlns="http://www.w3.org/2000/svg">
<path d="M15.7631 9.32929C16.7145 9.33016 17.6551 9.53676 18.5234 9.9355C19.3917 10.3343 20.1683 10.9163 20.8026 11.6436L22.7883 9.80759C21.5173 8.35795 19.8497 7.33487 18.0032 6.87194C16.1568 6.40895 14.2172 6.5276 12.4374 7.21235C10.6576 7.8971 9.12043 9.11615 8.02642 10.7104C6.93236 12.3048 6.33231 14.2002 6.30448 16.1496C6.27665 18.0989 6.82239 20.0117 7.87044 21.6381C8.91854 23.2646 10.4203 24.5292 12.1797 25.2671C13.9391 26.005 15.8746 26.1818 17.7335 25.7745C19.5924 25.3671 21.2884 24.3946 22.6003 22.9837L20.6597 21.0937C19.8866 21.9228 18.9253 22.5426 17.8617 22.8975C16.7981 23.2525 15.6652 23.3316 14.5645 23.1278C13.4638 22.924 12.4295 22.4437 11.554 21.7297C10.6785 21.0157 9.98918 20.0903 9.54763 19.0363C9.10603 17.9823 8.92596 16.8325 9.02351 15.6897C9.12111 14.5469 9.49323 13.4467 10.1067 12.4874C10.7201 11.5282 11.5558 10.7398 12.5389 10.1927C13.5221 9.6456 14.6221 9.35693 15.7406 9.35242L15.7631 9.32929Z" fill="#81CB2D"/>
<path d="M6.78787 7.03537L4.8288 5.13995C3.29837 6.60187 2.08397 8.33956 1.25527 10.2533C0.426618 12.167 0 14.219 0 16.2915C0 18.3639 0.426618 20.4159 1.25527 22.3296C2.08397 24.2434 3.29837 25.9811 4.8288 27.443L6.78787 25.5475C5.5119 24.3372 4.49886 22.8959 3.80741 21.307C3.11602 19.7181 2.76 18.0133 2.76 16.2915C2.76 14.5696 3.11602 12.8648 3.80741 11.2759C4.49886 9.68705 5.5119 8.2457 6.78787 7.03537Z" fill="#81CB2D"/>
<path d="M25.2125 3.43105C22.5413 1.38737 19.3136 0.287346 16.0004 0.291516V3.04346C18.7342 3.04085 21.398 3.9449 23.6065 5.62485L25.2125 3.43105Z" fill="#81CB2D"/>
<path d="M16.0004 29.5766V32.2915C19.0996 32.295 22.1326 31.3914 24.7276 29.6913L23.2032 27.443C21.0588 28.8389 18.5566 29.5801 16.0004 29.5766Z" fill="#81CB2D"/>
<path d="M16 26.2236C13.9005 26.2221 11.8521 25.5943 10.1322 24.4249C8.41216 23.2555 7.10366 21.601 6.38366 19.6854L3.87878 20.8153C4.82206 23.1941 6.48509 25.2396 8.64882 26.6824C10.8125 28.1251 13.3755 28.8974 16 28.8975V26.2236Z" fill="#81CB2D"/>
<path d="M6.06834 15.8066C6.23096 13.2561 7.34776 10.8636 9.19207 9.11446C11.0364 7.36542 13.4701 6.39078 15.9995 6.38831V3.68542C12.7604 3.68533 9.64521 4.94361 7.29869 7.19985C4.95217 9.45614 3.55392 12.5376 3.39343 15.8066H6.06834Z" fill="#81CB2D"/>
</svg>
