<svg width="33" height="33" viewBox="0 0 33 33" fill="none" xmlns="http://www.w3.org/2000/svg">
<path d="M5.02512 6.3587L0.0576172 11.3262L5.02512 16.2937L9.99262 11.3262L5.02512 6.3587Z" fill="#81CB2D"/>
<path d="M10.001 11.324L5.03167 6.35461C6.34857 7.67199 7.08838 9.45848 7.08838 11.3212C7.08838 13.184 6.34857 14.9704 5.03167 16.2878L0.0622559 21.2516L5.03167 26.221L10.001 21.2516L14.9704 16.2878L10.001 11.324Z" fill="#FFD700"/>
<path d="M27.0849 26.2318L32.0523 21.2643L27.0849 16.2968L22.1174 21.2643L27.0849 26.2318Z" fill="#81CB2D"/>
<path d="M22.1181 21.2628L27.0875 26.2266C25.7706 24.9092 25.0308 23.1227 25.0308 21.26C25.0308 19.3973 25.7706 17.6108 27.0875 16.2934L32.057 11.324L27.0875 6.35461L22.1181 11.324L17.1543 16.2934L22.1181 21.2628Z" fill="#FFD700"/>
<path d="M6.12427 27.324L11.0918 32.2915L16.0593 27.324L11.0918 22.3564L6.12427 27.324Z" fill="#81CB2D"/>
<path d="M11.0922 22.349L6.1228 27.3184C7.44018 26.0015 9.22663 25.2617 11.0894 25.2617C12.9521 25.2617 14.7386 26.0015 16.056 27.3184L21.0198 32.2879L25.9892 27.3184L21.0198 22.349L16.056 17.3852L11.0922 22.349Z" fill="#FFD700"/>
<path d="M25.9983 5.25904L21.0307 0.291504L16.0632 5.259L21.0307 10.2265L25.9983 5.25904Z" fill="#81CB2D"/>
<path d="M21.0309 10.2321L25.9948 5.26269C24.6774 6.57959 22.8909 7.31939 21.0282 7.31939C19.1654 7.31939 17.379 6.57959 16.0616 5.26269L11.0922 0.293274L6.1228 5.26269L11.0922 10.2321L16.0616 15.2015L21.0309 10.2321Z" fill="#FFD700"/>
</svg>
