<svg width="30" height="33" viewBox="0 0 30 33" fill="none" xmlns="http://www.w3.org/2000/svg">
<path d="M14.6357 22.0776C13.7585 22.0815 12.8927 21.8689 12.1096 21.4574C11.3266 21.0459 10.6484 20.4471 10.1308 19.7102L6.52307 21.8659C6.66036 22.0305 6.82288 22.1703 7.00411 22.2797L13.4239 26.129C13.7991 26.3284 14.2144 26.4323 14.6357 26.4323C15.0571 26.4323 15.4723 26.3284 15.8476 26.129L22.2674 22.2797C22.4486 22.1703 22.6111 22.0305 22.7484 21.8659L19.15 19.6718C18.6354 20.4171 17.9576 21.0241 17.1725 21.4425C16.3875 21.8609 15.5178 22.0786 14.6357 22.0776Z" fill="#81CB2D"/>
<path d="M8.98639 16.2685C8.98968 14.8999 9.5216 13.5805 10.4805 12.5624C11.4394 11.5443 12.758 10.8989 14.1842 10.7496V6.60132C13.9678 6.64423 13.7597 6.71868 13.567 6.82207L6.87448 10.5013C6.51072 10.7334 6.20825 11.0427 5.99079 11.405C5.77328 11.7672 5.64667 12.1725 5.62085 12.5892V19.9477C5.62382 20.16 5.65952 20.3708 5.7269 20.5731L9.48789 18.5036C9.15901 17.8001 8.9882 17.0387 8.98639 16.2685Z" fill="#81CB2D"/>
<path d="M22.4621 10.4987L16.1218 6.82194C15.9394 6.71859 15.7421 6.64418 15.5371 6.60132V10.7377C16.3985 10.8359 17.2249 11.1362 17.9498 11.6145C18.6747 12.0927 19.2779 12.7355 19.7107 13.4912C20.1436 14.2468 20.394 15.0942 20.4419 15.9651C20.4897 16.8359 20.3337 17.7059 19.9863 18.505L23.5493 20.5731C23.6131 20.3709 23.647 20.1603 23.6498 19.9481V12.5945C23.6267 12.1765 23.5074 11.7696 23.3013 11.4059C23.0951 11.0422 22.8079 10.7316 22.4621 10.4987Z" fill="#81CB2D"/>
<path d="M27.0796 6.81369L16.6129 0.760371C15.999 0.452044 15.3217 0.291504 14.6349 0.291504C13.9482 0.291504 13.2709 0.452044 12.6571 0.760371L2.19027 6.81369C1.61576 7.1885 1.13743 7.69333 0.793811 8.2874C0.450239 8.88147 0.251073 9.54811 0.212402 10.2335V22.34C0.250352 23.0269 0.449158 23.6951 0.79273 24.2908C1.1363 24.8866 1.61504 25.393 2.19027 25.7693L12.6571 31.8228C13.2709 32.1311 13.9482 32.2915 14.6349 32.2915C15.3217 32.2915 15.999 32.1311 16.6129 31.8228L27.0796 25.7693C27.6548 25.393 28.1336 24.8866 28.4771 24.2908C28.8207 23.6951 29.0195 23.0269 29.0575 22.34V10.2335C29.0188 9.54811 28.8196 8.88147 28.4761 8.2874C28.1324 7.69333 27.6541 7.1885 27.0796 6.81369ZM25.7357 20.9475C25.705 21.4751 25.5512 21.9882 25.2866 22.4455C25.022 22.9029 24.654 23.2917 24.2121 23.5811L16.1491 28.2418C15.6781 28.4799 15.1578 28.604 14.6302 28.604C14.1026 28.604 13.5823 28.4799 13.1113 28.2418L5.05779 23.5811C4.61587 23.2917 4.24787 22.9029 3.98331 22.4455C3.7187 21.9882 3.56487 21.4751 3.53414 20.9475V11.6355C3.56487 11.1079 3.7187 10.5948 3.98331 10.1375C4.24787 9.68012 4.61587 9.29121 5.05779 9.00195L13.1018 4.34122C13.5728 4.10311 14.0931 3.97903 14.6207 3.97903C15.1484 3.97903 15.6687 4.10311 16.1397 4.34122L24.2026 9.00195C24.6462 9.29017 25.0161 9.67864 25.2824 10.1361C25.5487 10.5934 25.704 11.1071 25.7357 11.6355V20.9475Z" fill="#81CB2D"/>
<path d="M10.5798 16.2915C10.5798 17.0492 10.8177 17.7899 11.2634 18.4199C11.7091 19.0499 12.3427 19.5409 13.0839 19.8309C13.8251 20.1208 14.6407 20.1967 15.4276 20.0489C16.2144 19.9011 16.9372 19.5362 17.5044 19.0004C18.0717 18.4647 18.4581 17.782 18.6146 17.0389C18.7711 16.2957 18.6908 15.5255 18.3837 14.8254C18.0767 14.1254 17.5569 13.5271 16.8898 13.1061C16.2227 12.6852 15.4384 12.4605 14.6362 12.4605C13.5604 12.4605 12.5286 12.8641 11.7679 13.5826C11.0072 14.3011 10.5798 15.2755 10.5798 16.2915Z" fill="#81CB2D"/>
</svg>
