<svg width="16" height="16" viewBox="0 0 16 16" fill="none" xmlns="http://www.w3.org/2000/svg">
<g clip-path="url(#clip0_1_1364)">
<path d="M15.875 1.42642C15.8028 1.37452 15.7087 1.36408 15.6268 1.39883L1.6551 7.03716L0 7.724L5.00111 9.7487H5.00664V9.75145L6.34451 14.4216C6.37145 14.5156 6.44619 14.5883 6.54091 14.6127C6.63562 14.6371 6.73618 14.6095 6.80517 14.5402L9.59124 11.6907L13.351 13.1692C13.506 13.2326 13.6815 13.2211 13.8269 13.1382C13.9723 13.0552 14.0715 12.91 14.0959 12.7444L15.9937 1.71328C16.0181 1.60226 15.9708 1.48776 15.875 1.42642ZM7.77337 10.9514L7.7789 10.9321L7.78718 10.9349L7.77337 10.9514Z" fill="#F6D23C"/>
<path d="M9.59125 11.6907L6.80518 14.5402C6.83764 14.5049 6.8613 14.4623 6.87414 14.4161L7.77341 10.9515L7.78719 10.9349L8.98437 11.4369L9.51953 11.6631L9.59125 11.6907Z" fill="#F29C1F"/>
<path d="M15.8955 1.4413L7.78723 10.9349L7.77895 10.9321L7.77342 10.9514L6.87415 14.4161C6.86131 14.4623 6.83768 14.5048 6.80519 14.5402C6.73619 14.6095 6.63563 14.6371 6.54092 14.6127C6.44621 14.5883 6.37149 14.5156 6.34452 14.4216L5.00666 9.75146V9.74871H5.00391V9.74596L15.8955 1.4413Z" fill="#F0C419"/>
</g>
<defs>
<clipPath id="clip0_1_1364">
<rect width="16" height="16" fill="white"/>
</clipPath>
</defs>
</svg>
