<svg width="25" height="25" viewBox="0 0 25 25" fill="none" xmlns="http://www.w3.org/2000/svg">
<g clip-path="url(#clip0_1_2481)">
<path d="M24.572 4.47158C24.3444 2.33955 22.6606 0.655364 20.5284 0.428009C15.1813 -0.14267 9.81864 -0.14267 4.47177 0.428009C2.33955 0.655555 0.655555 2.33955 0.428009 4.47158C-0.14267 9.81845 -0.14267 15.1813 0.428009 20.5282C0.655555 22.6604 2.33955 24.3444 4.47158 24.572C9.81845 25.1426 15.1813 25.1426 20.5284 24.572C22.6606 24.3444 24.3444 22.6604 24.572 20.5282C25.1426 15.1813 25.1426 9.81864 24.572 4.47158Z" fill="url(#paint0_radial_1_2481)"/>
<path d="M23.2125 5.37585C23.0107 3.48395 21.5165 1.98954 19.6244 1.78756C14.8797 1.28135 10.1209 1.28135 5.37615 1.78756C3.48425 1.98954 1.98985 3.48395 1.78786 5.37585C1.28165 10.1206 1.28165 14.8794 1.78786 19.6239C1.98985 21.516 3.48425 23.0104 5.37615 23.2122C10.1209 23.7186 14.8797 23.7186 19.6242 23.2122C21.5163 23.0104 23.0107 21.516 23.2125 19.6239C23.7189 14.8794 23.7189 10.1206 23.2125 5.37585Z" fill="url(#paint1_linear_1_2481)"/>
<path d="M0.374512 20.01C0.391678 20.1828 0.409416 20.3556 0.427917 20.5284C0.655464 22.6605 2.33946 24.3445 4.47168 24.572C9.81855 25.1427 15.1814 25.1427 20.5283 24.572C22.6605 24.3445 24.3443 22.6605 24.5719 20.5284C24.5904 20.3556 24.6081 20.1828 24.6255 20.01H0.374512Z" fill="url(#paint2_linear_1_2481)"/>
<path d="M24.572 20.5282C24.8787 17.6552 25.0202 14.7776 24.9973 11.9003L19.2829 6.18593C18.569 5.37092 17.5262 4.86223 16.301 4.81817C13.7812 4.72738 11.2534 4.73196 8.73318 4.81855C6.64006 4.89065 5.17636 6.29751 4.80099 8.36527C4.73481 8.73033 4.69514 9.10017 4.64307 9.4679V15.5298C4.67187 15.7263 4.71421 15.9218 4.72737 16.1194C4.81129 17.3771 5.32819 18.4544 6.15578 19.1832L11.9709 24.9981C14.8247 25.0181 17.6786 24.8762 20.5284 24.572C22.6606 24.3444 24.3444 22.6604 24.572 20.5282Z" fill="url(#paint3_linear_1_2481)"/>
<path d="M24.5723 20.5284C24.3449 22.6603 22.6605 24.3446 20.5287 24.572C17.6793 24.876 14.8248 25.0181 11.9714 24.9981L6.16504 19.1918C6.83814 19.7809 7.71552 20.1397 8.73366 20.1781C11.2533 20.2727 13.7816 20.2702 16.3013 20.1794C18.5802 20.097 20.2292 18.4103 20.3004 16.1314C20.3763 13.7118 20.3763 11.2858 20.3004 8.86615C20.268 7.81482 19.8989 6.88975 19.287 6.18976L24.9978 11.9005C25.0203 14.7774 24.8788 17.6554 24.5723 20.5284Z" fill="url(#paint4_linear_1_2481)"/>
<path d="M15.4503 9.79291C14.7182 8.99583 13.6679 8.49573 12.5004 8.49573C10.289 8.49573 8.49609 10.2886 8.49609 12.5C8.49609 13.6675 8.9962 14.7179 9.79328 15.4499L19.0578 24.7145C19.5482 24.6717 20.0386 24.6243 20.5286 24.572C22.6608 24.3444 24.3448 22.6604 24.5724 20.5282C24.6246 20.0382 24.6721 19.5478 24.7148 19.0575L15.4503 9.79291Z" fill="url(#paint5_linear_1_2481)"/>
<path d="M24.9518 15.193L17.4956 7.73698C17.3216 7.50867 17.0475 7.36047 16.7384 7.36047C16.2123 7.36047 15.7856 7.78696 15.7856 8.31319C15.7856 8.62237 15.9338 8.89646 16.1622 9.07041L24.8185 17.7269C24.8772 16.8825 24.9216 16.0378 24.9518 15.193Z" fill="url(#paint6_linear_1_2481)"/>
<path d="M4.64307 9.4679C4.69514 9.10017 4.73481 8.73033 4.80099 8.36527C5.17617 6.29751 6.64006 4.89065 8.73318 4.81855C11.2534 4.73196 13.7812 4.72738 16.301 4.81817C18.5791 4.90019 20.229 6.58705 20.3001 8.86594C20.3758 11.2858 20.3758 13.7116 20.3001 16.1314C20.229 18.4103 18.5797 20.097 16.3012 20.1792C13.7814 20.2702 11.253 20.2725 8.73337 20.1778C6.45486 20.0922 4.87977 18.4015 4.72737 16.1192C4.71421 15.9218 4.67187 15.7261 4.64307 15.5296C4.64307 13.509 4.64307 11.4884 4.64307 9.4679ZM12.5021 18.8286C13.6553 18.8286 14.8096 18.8631 15.9613 18.8206C17.7669 18.7536 18.8776 17.676 18.9197 15.872C18.972 13.6242 18.972 11.3733 18.9197 9.12534C18.8776 7.32176 17.7662 6.21893 15.9613 6.18059C13.6703 6.13214 11.377 6.13252 9.08604 6.18059C7.29485 6.21816 6.18096 7.29868 6.13232 9.08243C6.07052 11.3587 6.07052 13.6389 6.13232 15.9151C6.18096 17.6987 7.29485 18.7542 9.08623 18.8206C10.2234 18.8629 11.3634 18.8286 12.5021 18.8286Z" fill="url(#paint7_linear_1_2481)"/>
<path d="M4.64307 9.4679C4.69514 9.10017 4.73481 8.73033 4.80099 8.36527C5.17617 6.29751 6.64006 4.89065 8.73318 4.81855C11.2534 4.73196 13.7812 4.72738 16.301 4.81817C18.5791 4.90019 20.229 6.58705 20.3001 8.86594C20.3758 11.2858 20.3758 13.7116 20.3001 16.1314C20.229 18.4103 18.5797 20.097 16.3012 20.1792C13.7814 20.2702 11.253 20.2725 8.73337 20.1778C6.45486 20.0922 4.87977 18.4015 4.72737 16.1192C4.71421 15.9218 4.67187 15.7261 4.64307 15.5296C4.64307 13.509 4.64307 11.4884 4.64307 9.4679ZM12.5021 18.8286C13.6553 18.8286 14.8096 18.8631 15.9613 18.8206C17.7669 18.7536 18.8776 17.676 18.9197 15.872C18.972 13.6242 18.972 11.3733 18.9197 9.12534C18.8776 7.32176 17.7662 6.21893 15.9613 6.18059C13.6703 6.13214 11.377 6.13252 9.08604 6.18059C7.29485 6.21816 6.18096 7.29868 6.13232 9.08243C6.07052 11.3587 6.07052 13.6389 6.13232 15.9151C6.18096 17.6987 7.29485 18.7542 9.08623 18.8206C10.2234 18.8629 11.3634 18.8286 12.5021 18.8286Z" fill="white"/>
<path d="M12.4999 8.49591C10.2885 8.49591 8.49561 10.2886 8.49561 12.5C8.49561 14.7116 10.2885 16.5043 12.4999 16.5043C14.7115 16.5043 16.5042 14.7116 16.5042 12.5C16.5042 10.2886 14.7115 8.49591 12.4999 8.49591ZM12.4999 15.1257C11.0497 15.1257 9.87424 13.9502 9.87424 12.5C9.87424 11.0498 11.0497 9.87435 12.4999 9.87435C13.95 9.87435 15.1255 11.0498 15.1255 12.5C15.1255 13.9502 13.95 15.1257 12.4999 15.1257Z" fill="white"/>
<path d="M17.6904 8.31319C17.6904 8.83924 17.2639 9.26572 16.7379 9.26572C16.2118 9.26572 15.7852 8.83924 15.7852 8.31319C15.7852 7.78696 16.2118 7.36047 16.7379 7.36047C17.2639 7.36047 17.6904 7.78696 17.6904 8.31319Z" fill="white"/>
</g>
<defs>
<radialGradient id="paint0_radial_1_2481" cx="0" cy="0" r="1" gradientUnits="userSpaceOnUse" gradientTransform="translate(5.12485 21.848) scale(27.5706)">
<stop stop-color="#FAE100"/>
<stop offset="0.0544" stop-color="#FADC04"/>
<stop offset="0.1167" stop-color="#FBCE0E"/>
<stop offset="0.1829" stop-color="#FCB720"/>
<stop offset="0.2514" stop-color="#FE9838"/>
<stop offset="0.3054" stop-color="#FF7950"/>
<stop offset="0.4922" stop-color="#FF1C74"/>
<stop offset="1" stop-color="#6C1CD1"/>
</radialGradient>
<linearGradient id="paint1_linear_1_2481" x1="9.58879" y1="10.8623" x2="-32.7641" y2="-12.9612" gradientUnits="userSpaceOnUse">
<stop stop-color="#A1B5D8" stop-opacity="0"/>
<stop offset="0.3094" stop-color="#90A2BD" stop-opacity="0.309804"/>
<stop offset="0.7554" stop-color="#7C8B9C" stop-opacity="0.756863"/>
<stop offset="1" stop-color="#748290"/>
</linearGradient>
<linearGradient id="paint2_linear_1_2481" x1="12.4999" y1="22.0687" x2="12.4999" y2="25.9655" gradientUnits="userSpaceOnUse">
<stop stop-color="#FAE100" stop-opacity="0"/>
<stop offset="0.3068" stop-color="#FCA800" stop-opacity="0.305882"/>
<stop offset="0.6275" stop-color="#FE7300" stop-opacity="0.627451"/>
<stop offset="0.8685" stop-color="#FF5200" stop-opacity="0.866667"/>
<stop offset="1" stop-color="#FF4500"/>
</linearGradient>
<linearGradient id="paint3_linear_1_2481" x1="11.0778" y1="11.0424" x2="4.89067" y2="4.8553" gradientUnits="userSpaceOnUse">
<stop stop-color="#833AB4" stop-opacity="0"/>
<stop offset="1" stop-color="#833AB4"/>
</linearGradient>
<linearGradient id="paint4_linear_1_2481" x1="17.1341" y1="22.8656" x2="14.046" y2="8.30753" gradientUnits="userSpaceOnUse">
<stop stop-color="#833AB4" stop-opacity="0"/>
<stop offset="1" stop-color="#833AB4"/>
</linearGradient>
<linearGradient id="paint5_linear_1_2481" x1="18.3092" y1="18.3088" x2="5.90571" y2="5.90533" gradientUnits="userSpaceOnUse">
<stop stop-color="#833AB4" stop-opacity="0"/>
<stop offset="1" stop-color="#833AB4"/>
</linearGradient>
<linearGradient id="paint6_linear_1_2481" x1="19.2291" y1="10.8039" x2="15.1275" y2="6.70228" gradientUnits="userSpaceOnUse">
<stop stop-color="#833AB4" stop-opacity="0"/>
<stop offset="1" stop-color="#833AB4"/>
</linearGradient>
<linearGradient id="paint7_linear_1_2481" x1="17.4638" y1="7.57079" x2="7.35072" y2="17.6839" gradientUnits="userSpaceOnUse">
<stop stop-color="#833AB4"/>
<stop offset="0.0922" stop-color="#9C3495"/>
<stop offset="0.2927" stop-color="#DC2546"/>
<stop offset="0.392" stop-color="#FD1D1D"/>
<stop offset="0.5589" stop-color="#FC6831"/>
<stop offset="0.6887" stop-color="#FC9B40"/>
<stop offset="0.7521" stop-color="#FCAF45"/>
<stop offset="0.7806" stop-color="#FDB750"/>
<stop offset="0.8656" stop-color="#FECB6A"/>
<stop offset="0.9415" stop-color="#FFD87A"/>
<stop offset="1" stop-color="#FFDC80"/>
</linearGradient>
<clipPath id="clip0_1_2481">
<rect width="25" height="25" fill="white"/>
</clipPath>
</defs>
</svg>
