<svg width="25" height="25" viewBox="0 0 25 25" fill="none" xmlns="http://www.w3.org/2000/svg">
<path d="M6.35498 0C6.21501 0 5.93505 0 5.68309 0C5.12318 0.0279955 4.3953 0.055991 4.08735 0.139978C3.58343 0.25196 3.1075 0.391937 2.71557 0.587906C2.26764 0.81187 1.8477 1.11982 1.48376 1.48376C1.11982 1.8477 0.839866 2.23964 0.587906 2.71557C0.391937 3.1075 0.223964 3.58343 0.139978 4.05935C0.0839866 4.3953 0.0279955 5.12318 0 5.68309V6.35498V18.645V19.3169C0.0279955 19.8768 0.055991 20.6047 0.139978 20.9127C0.25196 21.4166 0.391937 21.8925 0.587906 22.2844C0.81187 22.7324 1.11982 23.1523 1.48376 23.5162C1.8477 23.8802 2.23964 24.1601 2.71557 24.4121C3.1075 24.6081 3.58343 24.776 4.05935 24.86C4.3953 24.916 5.12318 24.972 5.68309 25H6.35498H18.645H19.3169C19.8768 24.972 20.6047 24.944 20.9127 24.86C21.4166 24.748 21.8925 24.6081 22.2844 24.4121C22.7324 24.1881 23.1523 23.8802 23.5162 23.5162C23.8802 23.1523 24.1601 22.7604 24.4121 22.2844C24.6081 21.8925 24.776 21.4166 24.86 20.9407C24.916 20.6047 24.972 19.8768 25 19.3169C25 19.0929 25 18.785 25 18.645V6.35498C25 6.21501 25 5.93505 25 5.68309C24.972 5.12318 24.944 4.3953 24.86 4.08735C24.748 3.58343 24.6081 3.1075 24.4121 2.71557C24.1881 2.26764 23.8802 1.8477 23.5162 1.48376C23.1523 1.11982 22.7604 0.839866 22.2844 0.587906C21.8925 0.391937 21.4166 0.223964 20.9407 0.139978C20.6047 0.0839866 19.8768 0.0279955 19.3169 0C19.0929 0 18.785 0 18.645 0H6.35498Z" fill="url(#paint0_linear_1_2497)"/>
<path d="M17.0497 13.8317C16.8257 13.7197 15.7059 13.1878 15.5099 13.1038C15.3139 13.0198 15.146 12.9918 15.006 13.2158C14.866 13.4398 14.4181 13.9437 14.3061 14.0837C14.1661 14.2236 14.0541 14.2516 13.8302 14.1396C13.6062 14.0277 12.8783 13.8037 12.0105 13.0478C11.3386 12.4599 10.8906 11.732 10.7507 11.5081C10.6107 11.2841 10.7507 11.1721 10.8627 11.0601C10.9746 10.9482 11.0866 10.8082 11.1986 10.6682C11.3106 10.5282 11.3386 10.4442 11.4226 10.3043C11.5065 10.1643 11.4506 10.0243 11.3946 9.91232C11.3386 9.80034 10.8906 8.70851 10.6947 8.26058C10.4987 7.84065 10.3307 7.89664 10.1908 7.86865C10.0508 7.86865 9.9108 7.86865 9.77082 7.86865C9.63085 7.86865 9.37889 7.92464 9.18292 8.1486C8.98695 8.37257 8.39904 8.90448 8.39904 9.99631C8.39904 11.0881 9.21091 12.124 9.3229 12.2919C9.43488 12.4319 10.9186 14.6716 13.1583 15.6234C13.6902 15.8474 14.1101 15.9873 14.4461 16.0993C14.978 16.2673 15.4819 16.2393 15.8738 16.1833C16.2938 16.1273 17.2176 15.6514 17.3856 15.1475C17.5816 14.6436 17.5816 14.1956 17.5256 14.1116C17.4136 13.9997 17.2736 13.9437 17.0497 13.8317ZM12.7663 19.5988C11.4226 19.5988 10.1348 19.2348 8.98695 18.5629L8.707 18.395L5.90744 19.1228L6.66332 16.4073L6.49535 16.1273C5.76747 14.9515 5.37553 13.6077 5.37553 12.208C5.37553 8.1486 8.707 4.84513 12.7943 4.84513C14.726 4.84513 16.6017 5.60101 18.0015 7.00079C19.4013 8.40056 20.1572 10.2483 20.1572 12.208C20.1572 16.2673 16.8257 19.5988 12.7663 19.5988ZM19.0653 5.93696C17.3856 4.25723 15.146 3.33337 12.7663 3.33337C7.86713 3.33337 3.86377 7.30874 3.86377 12.208C3.86377 13.7757 4.2837 15.2875 5.03958 16.6312L3.77979 21.2225L8.48303 19.9907C9.77082 20.6906 11.2546 21.0825 12.7383 21.0825C17.6376 21.0825 21.6409 17.1072 21.6409 12.208C21.6689 9.85633 20.7451 7.61669 19.0653 5.93696Z" fill="white"/>
<defs>
<linearGradient id="paint0_linear_1_2497" x1="12.5084" y1="0.0055991" x2="12.5084" y2="24.9832" gradientUnits="userSpaceOnUse">
<stop stop-color="#62FA7F"/>
<stop offset="0.6865" stop-color="#22CC40"/>
<stop offset="1" stop-color="#05B723"/>
</linearGradient>
</defs>
</svg>
